<?xml version="1.0" standalone="no"?>
<!DOCTYPE svg PUBLIC "-//W3C//DTD SVG 20010904//EN"
 "http://www.w3.org/TR/2001/REC-SVG-20010904/DTD/svg10.dtd">
<svg version="1.0" xmlns="http://www.w3.org/2000/svg"
 width="160.000000pt" height="160.000000pt" viewBox="0 0 160.000000 160.000000"
 preserveAspectRatio="xMidYMid meet">
<metadata>
Created by potrace 1.11, written by Peter Selinger 2001-2013
</metadata>
<g transform="translate(0.000000,160.000000) scale(0.100000,-0.100000)"
fill="#000000" stroke="none">
<path d="M1442 1010 c-29 -16 -76 -45 -104 -66 l-52 -37 -73 39 -74 39 -35
-43 c-35 -41 -37 -42 -60 -27 -13 8 -30 15 -38 15 -8 0 -44 -32 -81 -72 l-67
-72 27 -8 c15 -4 33 -4 40 -2 17 7 28 34 13 34 -7 0 -5 7 4 18 9 9 20 30 25
46 14 44 38 55 63 30 l21 -20 -46 -59 c-25 -32 -45 -66 -45 -76 0 -19 34 -31
48 -17 5 5 18 8 28 6 13 -3 5 -9 -25 -18 -34 -11 -46 -11 -49 -2 -2 7 -10 12
-18 12 -8 0 -14 4 -14 9 0 10 -30 24 -37 17 -8 -8 169 -221 183 -220 7 1 10
-4 8 -11 -3 -7 17 -40 45 -73 42 -50 54 -59 75 -55 15 3 26 1 26 -5 0 -6 -9
-12 -19 -14 -16 -2 -8 -17 50 -90 59 -74 74 -88 98 -88 24 0 28 3 24 20 -3 11
-14 25 -24 31 -11 5 -19 14 -19 19 0 18 29 10 45 -12 12 -16 19 -19 22 -10 6
16 23 15 23 -2 0 -7 7 -19 15 -26 26 -22 16 -30 -35 -29 -28 1 -53 -1 -56 -4
-3 -3 27 -46 67 -96 l73 -91 53 0 54 0 -3 152 c-3 130 -5 153 -18 150 -12 -2
-11 1 2 11 15 12 17 38 18 212 0 226 -6 295 -26 295 -8 0 -13 -6 -11 -12 1 -7
-9 -14 -23 -16 -45 -6 -55 -11 -42 -24 15 -15 15 -28 1 -28 -5 0 -7 5 -4 10 3
6 -1 10 -9 10 -9 0 -16 7 -16 15 0 8 -4 15 -10 15 -5 0 -10 -6 -10 -14 0 -10
-11 -14 -35 -13 -19 1 -35 5 -35 10 0 4 5 5 10 2 6 -3 10 -1 10 4 0 19 -19 12
-31 -11 -8 -14 -14 -18 -17 -10 -5 16 -34 16 -50 0 -10 -10 -18 -6 -37 17 -19
23 -24 26 -25 13 0 -10 6 -18 13 -19 6 -1 1 -4 -13 -8 -31 -10 -44 -3 -30 14
9 11 6 13 -19 10 -17 -2 -31 -1 -31 3 0 9 106 82 119 82 4 0 19 10 33 23 34
30 58 45 91 58 15 6 27 14 27 18 0 4 16 16 35 27 32 17 36 17 52 2 72 -67 72
-66 77 -51 12 30 6 81 -10 87 -36 14 -91 4 -142 -24z m-292 -304 c6 -8 18 -12
26 -9 8 3 14 -1 14 -11 0 -9 5 -16 12 -16 6 0 0 -10 -13 -23 -18 -18 -29 -21
-47 -15 -13 4 -28 5 -33 2 -6 -3 -25 1 -44 10 -31 15 -33 19 -23 41 8 19 16
23 33 19 13 -3 26 -1 29 5 10 15 31 14 46 -3z m-140 -21 c0 -8 -9 -15 -20 -15
-17 0 -19 2 -8 15 17 19 28 19 28 0z m348 -39 c-13 -12 -30 -22 -38 -21 -21 3
-19 30 2 30 10 0 23 6 29 12 7 7 16 10 21 7 5 -3 -1 -16 -14 -28z m-297 -16
c20 0 21 -1 23 -42 2 -28 -16 -38 -29 -18 -3 6 -1 10 6 10 7 0 5 8 -6 20 -10
11 -25 20 -33 20 -12 0 -12 3 -1 16 8 10 15 12 17 5 2 -6 12 -11 23 -11z m148
-44 c10 -12 8 -14 -15 -12 -16 2 -30 8 -32 15 -5 16 33 14 47 -3z m81 5 c0
-12 -28 -22 -34 -12 -3 5 -3 11 1 15 9 9 33 7 33 -3z m100 -10 c0 -5 -7 -12
-16 -15 -22 -9 -24 -8 -24 9 0 8 9 15 20 15 11 0 20 -4 20 -9z m65 -32 c4 -6
13 -8 20 -5 8 3 19 -2 26 -10 10 -12 9 -13 -5 -8 -11 4 -16 1 -16 -10 0 -9 -4
-16 -10 -16 -5 0 -10 4 -10 9 0 6 -12 6 -30 1 -27 -8 -30 -6 -30 14 0 12 3 26
7 29 10 11 41 8 48 -4z m133 -20 c2 -10 -8 -14 -34 -15 l-37 -1 23 19 c25 20
43 19 48 -3z m-401 -37 c-10 -2 -26 -1 -35 3 -14 5 -14 8 -2 15 8 5 22 4 34
-3 19 -10 20 -11 3 -15z m242 -26 l22 -23 -38 1 c-31 1 -39 5 -41 24 -5 30 27
30 57 -2z m160 1 c-2 -1 -15 -11 -29 -22 l-25 -20 19 23 c11 12 24 22 29 22 6
0 8 -1 6 -3z m-389 -23 c25 -13 37 -14 51 -6 13 9 20 9 25 0 9 -15 -26 -40
-40 -29 -6 5 -28 14 -49 21 -20 6 -35 16 -32 21 8 12 6 12 45 -7z m151 -31
c13 -16 12 -17 -3 -4 -10 7 -18 15 -18 17 0 8 8 3 21 -13z m-26 -2 c3 -5 -4
-12 -15 -16 -26 -8 -25 -19 3 -33 17 -8 18 -11 5 -11 -10 -1 -32 8 -50 19 -18
11 -27 20 -20 20 7 0 20 7 28 15 17 17 40 20 49 6z m40 -82 c4 -6 5 -13 2 -16
-8 -7 -47 7 -47 18 0 13 37 11 45 -2z m205 -58 c0 -5 -7 -11 -14 -14 -10 -4
-13 -1 -9 9 6 15 23 19 23 5z m-65 -37 c9 -9 14 -19 11 -21 -8 -9 -76 18 -71
28 9 14 42 11 60 -7z m73 -74 c3 -7 0 -10 -6 -6 -6 4 -8 -2 -5 -14 4 -14 1
-19 -8 -16 -8 2 -26 7 -41 10 -29 7 -39 36 -13 36 9 0 18 7 22 15 5 14 8 14
26 2 12 -8 23 -20 25 -27z"/>
<path d="M91 972 c-11 -9 -35 -36 -55 -59 l-34 -43 -1 -247 -1 -248 25 -28
c13 -15 29 -26 36 -25 6 2 14 -3 16 -9 7 -18 -17 -16 -39 4 -10 9 -21 13 -26
9 -4 -4 1 -13 11 -20 17 -14 23 -27 9 -25 -27 4 -32 -4 -32 -51 0 -45 3 -52
25 -60 32 -12 32 -28 0 -36 -17 -4 -25 -13 -25 -27 0 -16 3 -18 12 -9 7 7 21
12 32 12 17 0 15 -4 -12 -21 -26 -17 -32 -28 -32 -55 l0 -34 53 0 52 0 68 90
c37 49 67 91 67 93 0 5 -112 -2 -140 -8 -24 -6 -24 -6 -8 11 15 15 32 18 92
15 l74 -2 66 88 c63 84 65 88 44 95 -20 5 -19 6 8 7 26 1 38 11 77 66 52 72
52 73 35 72 -42 -1 -46 2 -35 28 13 27 48 42 67 30 9 -6 9 -10 -1 -16 -11 -7
-11 -9 2 -9 18 0 55 48 45 57 -3 4 3 11 15 17 11 6 28 25 37 41 10 17 20 31
25 33 18 9 4 17 -31 19 -20 1 -31 -1 -24 -4 19 -7 14 -20 -10 -26 -21 -6 -21
-7 -5 -25 17 -19 17 -20 -5 -26 -43 -11 -71 -7 -64 10 3 8 2 12 -4 9 -6 -3
-10 -2 -10 3 0 13 45 42 65 42 8 0 15 7 15 16 0 13 9 15 49 12 40 -2 52 1 61
15 13 22 -7 55 -83 142 l-44 50 -40 -27 c-38 -25 -41 -25 -57 -10 -16 16 -17
15 -7 -9 11 -31 1 -51 -29 -56 -19 -3 -95 30 -147 64 -12 8 -54 30 -92 48 -67
32 -71 33 -90 17z m61 -31 c32 -12 80 -59 73 -71 -3 -6 3 -10 13 -10 15 0 19
-5 15 -21 -3 -12 -11 -18 -19 -15 -20 8 -17 -4 4 -20 16 -12 15 -13 -5 -14
-12 0 -34 5 -48 12 -23 10 -28 10 -36 -5 -9 -14 -14 -15 -32 -5 -12 7 -25 11
-28 10 -4 0 -9 8 -12 19 -4 15 -2 19 8 15 9 -3 12 0 8 10 -3 9 -12 12 -24 9
-24 -8 -24 -5 2 50 22 47 37 53 81 36z m128 -122 c0 -6 -4 -7 -10 -4 -5 3 -10
11 -10 16 0 6 5 7 10 4 6 -3 10 -11 10 -16z m-96 -34 c3 -9 0 -15 -9 -15 -8 0
-15 7 -15 15 0 8 4 15 9 15 5 0 11 -7 15 -15z m293 -81 c-3 -3 -12 -4 -19 -1
-8 3 -5 6 6 6 11 1 17 -2 13 -5z m-65 -26 c-7 -7 -12 -8 -12 -2 0 14 12 26 19
19 2 -3 -1 -11 -7 -17z m-32 -18 c0 -5 -7 -10 -15 -10 -8 0 -15 5 -15 10 0 6
7 10 15 10 8 0 15 -4 15 -10z m35 -30 c-3 -5 -10 -10 -16 -10 -5 0 -9 5 -9 10
0 6 7 10 16 10 8 0 12 -4 9 -10z m-167 -28 l31 -29 6 24 c3 12 11 23 18 23 18
0 57 -38 57 -55 0 -7 8 -16 18 -18 9 -3 -7 -5 -35 -6 -29 0 -53 -5 -53 -10 0
-6 -12 -6 -30 1 -25 8 -34 7 -50 -7 -17 -16 -19 -15 -25 4 -6 20 1 75 12 94 8
13 20 8 51 -21z m177 -92 c4 -6 -7 -10 -24 -10 -17 0 -31 5 -31 10 0 6 11 10
24 10 14 0 28 -4 31 -10z m-221 -30 c21 -4 46 -16 55 -25 15 -15 14 -16 -12
-9 -21 5 -31 2 -41 -12 -13 -17 -15 -17 -47 2 -42 25 -51 54 -17 54 13 0 41
-5 62 -10z m173 -22 c18 -7 33 -18 33 -25 0 -15 -16 -17 -25 -3 -3 6 -24 10
-46 10 -37 0 -48 8 -32 23 10 10 33 8 70 -5z m-187 -88 c-10 -7 -11 -10 -2
-10 6 0 12 -6 12 -14 0 -8 -10 -13 -25 -13 -27 0 -31 11 -15 53 10 26 12 26
28 10 15 -15 15 -18 2 -26z m-80 2 c0 -11 -7 -18 -19 -18 -16 0 -17 4 -10 18
12 23 29 23 29 0z m20 -55 c0 -8 -7 -14 -15 -14 -16 0 -19 9 -8 20 11 11 23 8
23 -6z m130 -27 c0 -12 -54 -33 -58 -21 -2 6 -12 7 -28 1 -27 -11 -34 4 -8 18
19 11 94 13 94 2z m-69 -45 c0 -6 -10 -12 -23 -13 -19 -4 -20 -2 -9 12 15 17
33 18 32 1z m-111 -5 c0 -5 -7 -10 -16 -10 -8 0 -12 5 -9 10 3 6 10 10 16 10
5 0 9 -4 9 -10z m-40 -35 c0 -9 -6 -12 -15 -9 -8 4 -15 10 -15 15 0 5 7 9 15
9 8 0 15 -7 15 -15z"/>
<path d="M1277 812 c-3 -4 1 -15 8 -25 8 -12 15 -14 20 -8 3 6 0 18 -9 26 -8
8 -17 12 -19 7z"/>
<path d="M724 762 c-15 -9 -506 -753 -501 -758 2 -2 264 -3 581 -2 l578 3
-229 325 c-341 484 -304 440 -366 440 -29 0 -57 -4 -63 -8z m89 -9 c-13 -2
-35 -2 -50 0 -16 2 -5 4 22 4 28 0 40 -2 28 -4z m10 -50 c-24 -2 -62 -2 -85 0
-24 2 -5 4 42 4 47 0 66 -2 43 -4z m77 -83 c-32 -10 -185 -10 -225 0 -18 5 26
8 110 8 84 0 130 -3 115 -8z m23 -77 c20 -3 37 -9 37 -14 0 -5 -77 -9 -172 -9
-130 0 -169 3 -161 11 7 7 50 12 107 13 52 1 98 5 102 9 5 5 18 5 29 1 11 -3
37 -8 58 -11z m11 -138 c60 -2 113 -8 119 -14 8 -8 -66 -11 -258 -10 -149 1
-259 4 -245 6 14 3 30 9 37 15 7 5 40 7 81 2 46 -4 76 -2 88 5 11 6 30 8 44 5
14 -3 74 -7 134 -9z m-399 -195 c4 -6 52 -8 123 -5 143 6 135 6 362 -3 156 -6
175 -8 121 -14 -83 -10 -641 -9 -706 2 -43 6 -45 8 -15 9 19 1 42 6 50 11 20
13 57 13 65 0z"/>
</g>
</svg>
