<svg xmlns="http://www.w3.org/2000/svg" xml:space="preserve" viewBox="0 0 24 24"><path fill="currentColor" d="M5.3 2.1c.8-.1 1.9.1 3.3 1l.3.2.2.1.4-.1c1.5-.3 3-.4 4.6-.1l.5.1.4.1.2-.1c1.4-.8 2.5-1.2 3.3-1.1h.5c.2.1.4.3.5.5.4.9.5 1.9.4 2.9v.5l.1.2c.5.7.9 1.7 1 2.6v.6c0 3.9-1.7 5.9-4.6 6.7l-.2.1h-.1v4.8c0 .2-.1.5-.3.7-.2.2-.4.3-.6.3L15 22H9c-.2 0-.5-.1-.7-.3-.1-.1-.3-.3-.3-.6V20.3c-1.8.3-3-.4-4.1-1.9l-.5-.8c-.3-.4-.5-.6-.6-.6-.2-.1-.5-.3-.6-.5-.2-.3-.2-.5-.1-.8.1-.2.2-.5.5-.6.2-.1.4-.1.7-.1.6.2 1.1.6 1.6 1.2l.5.8c.8 1.1 1.4 1.5 2.6 1.2v-2h-.1c-3-.7-4.7-2.6-4.9-6.1v-.6c0-1.1.3-2.1.9-3.1l.2-.2.1-.2v-.2C4 5 4 4.1 4.3 3.2l.1-.3.1-.3c.1-.1.3-.3.5-.4h.1l.2-.1z"/></svg>
