<svg xmlns="http://www.w3.org/2000/svg" fill="none" viewBox="0 0 366 366"><path fill="#fff" fill-rule="evenodd" d="m364.132 206.719-151.441-19.754c.167-1.283.262-2.655.262-4.126 0-1.471-.095-2.844-.262-4.126l151.441-19.755a184.48 184.48 0 0 1 1.546 23.881c0 8.094-.526 16.065-1.546 23.88Zm-12.328-93.869-141.076 58.502a29.89 29.89 0 0 0-3.923-6.764L327.903 71.53a182.663 182.663 0 0 1 23.901 41.32Zm-57.656-75.075-93.059 121.098a29.905 29.905 0 0 0-6.763-3.924l58.501-141.075a182.624 182.624 0 0 1 41.321 23.9Zm-87.429-36.23-19.754 151.442a31.722 31.722 0 0 0-4.126-.263 31.71 31.71 0 0 0-4.126.263L158.958 1.545A184.569 184.569 0 0 1 182.839 0c8.094 0 16.065.526 23.88 1.545ZM112.85 13.874l58.502 141.075a29.933 29.933 0 0 0-6.764 3.924L71.53 37.775a182.65 182.65 0 0 1 41.32-23.901ZM37.775 71.53l121.098 93.058a29.933 29.933 0 0 0-3.924 6.764L13.874 112.85a182.65 182.65 0 0 1 23.9-41.32Zm-36.23 87.428 151.442 19.755a31.71 31.71 0 0 0-.263 4.126c0 1.471.095 2.843.263 4.126L1.545 206.719A184.542 184.542 0 0 1 0 182.839c0-8.094.526-16.065 1.545-23.881Zm12.329 93.869 141.075-58.501a29.905 29.905 0 0 0 3.924 6.763L37.775 294.148a182.624 182.624 0 0 1-23.901-41.321Zm57.656 75.076 93.058-121.098a29.89 29.89 0 0 0 6.764 3.923L112.85 351.804a182.663 182.663 0 0 1-41.32-23.901Zm87.428 36.229 19.755-151.441c1.282.167 2.655.262 4.126.262 1.471 0 2.843-.095 4.126-.262l19.754 151.441a184.453 184.453 0 0 1-23.88 1.546 184.48 184.48 0 0 1-23.881-1.546Zm93.869-12.328-58.501-141.076a29.863 29.863 0 0 0 6.763-3.923l93.059 121.098a182.636 182.636 0 0 1-41.321 23.901Zm75.076-57.656-121.098-93.059a29.863 29.863 0 0 0 3.923-6.763l141.076 58.501a182.636 182.636 0 0 1-23.901 41.321Z" clip-rule="evenodd"/></svg>
