<svg xmlns="http://www.w3.org/2000/svg" fill="none" viewBox="0 0 366 366"><path fill="#fff" fill-rule="evenodd" d="M342.928 271.235a182.03 182.03 0 0 0 8.876-18.408c8.94-21.558 13.874-45.197 13.874-69.988 0-24.792-4.934-48.431-13.874-69.989a182.013 182.013 0 0 0-8.876-18.407 183.1 183.1 0 0 0-10.917-17.354c-17.984 9.924-26.012 31.998-17.96 51.417 6.918 16.682 10.757 35.008 10.757 54.333 0 19.325-3.839 37.65-10.757 54.333-8.052 19.419-.024 41.492 17.96 51.417a183.071 183.071 0 0 0 10.917-17.354Zm-54.339 60.776c-9.925-17.984-31.998-26.012-51.417-17.96-16.683 6.918-35.008 10.757-54.333 10.757-19.325 0-37.651-3.839-54.333-10.757-19.419-8.052-41.493-.024-51.417 17.96a183.1 183.1 0 0 0 17.354 10.917 182.013 182.013 0 0 0 18.407 8.876c21.558 8.94 45.197 13.874 69.989 13.874 24.791 0 48.43-4.934 69.988-13.874a182.03 182.03 0 0 0 18.408-8.876 183.071 183.071 0 0 0 17.354-10.917ZM33.667 288.589c17.984-9.925 26.012-31.998 17.96-51.417-6.919-16.683-10.757-35.008-10.757-54.333 0-19.325 3.839-37.651 10.757-54.333 8.052-19.419.024-41.493-17.96-51.417A182.938 182.938 0 0 0 22.75 94.443a182.097 182.097 0 0 0-8.876 18.407C4.934 134.408 0 158.047 0 182.839c0 24.791 4.934 48.43 13.874 69.988a182.113 182.113 0 0 0 8.876 18.408 182.91 182.91 0 0 0 10.917 17.354ZM77.089 33.667c9.924 17.984 31.998 26.012 51.417 17.96 16.682-6.919 35.008-10.757 54.333-10.757 19.325 0 37.65 3.839 54.333 10.757 19.419 8.052 41.492.024 51.417-17.96a182.91 182.91 0 0 0-17.354-10.917 182.113 182.113 0 0 0-18.408-8.876C231.269 4.934 207.63 0 182.839 0c-24.792 0-48.431 4.934-69.989 13.874a182.097 182.097 0 0 0-18.407 8.876c-6 3.32-11.792 6.966-17.354 10.917Z" clip-rule="evenodd"/></svg>
