<svg xmlns="http://www.w3.org/2000/svg" fill="none" viewBox="0 0 67 72"><path fill="currentColor" d="m66.875 26.733-32.659 32.85H27.66a1.072 1.072 0 0 1-.995-.67 1.091 1.091 0 0 1 .235-1.18l9.23-9.29a3.913 3.913 0 0 0 1.133-2.758v-27.52a1.088 1.088 0 0 1 .316-.768l4.988-5.017a3.866 3.866 0 0 1 2.724 1.153 3.912 3.912 0 0 1 1.126 2.748v7.834a2.612 2.612 0 0 1-.757 1.84l-.708.713.131.173 12.102-12.166V.002h-.216v5.385a.653.653 0 0 1-.462.62.643.643 0 0 1-.723-.264 8.638 8.638 0 0 0-3.115-2.896 8.578 8.578 0 0 0-4.11-1.05H38.432l-8.855 8.938-3.447 3.468a1.074 1.074 0 0 1-1.838-.767V0h-.215v6.215a.651.651 0 0 1-.507.636.642.642 0 0 1-.726-.36c-1.723-3.722-4.362-4.699-4.362-4.699L6.127 14.077l.151.154.545-.542c2.27-2.251 6.136-.943 6.564 2.237.093.699.137 1.403.134 2.108v40.212L0 71.846.153 72l.53-.533a3.867 3.867 0 0 1 2.736-1.147h39.092l21.303-21.557a3.912 3.912 0 0 0 1.135-2.757V30.562c0-1.034.409-2.026 1.135-2.757l.916-.92-.125-.152Zm-42.558.964V16.34l3.938-3.962h11.403a1.073 1.073 0 0 1 .997.669 1.09 1.09 0 0 1-.234 1.182L26.152 28.58a1.075 1.075 0 0 1-1.84-.767l.005-.117Zm0 3.034 2.18-2.195v16.673l-2.184 2.197.004-16.675Zm.43 28.845H15.12a1.07 1.07 0 0 1-.997-.668 1.09 1.09 0 0 1 .234-1.182l10.3-10.359a1.075 1.075 0 0 1 1.84.765v9.672l-1.75 1.772Zm29.456-1.7a.653.653 0 0 1-.19.459l-1.042 1.05a.645.645 0 0 1-.457.191h-15.4a1.07 1.07 0 0 1-.997-.668 1.09 1.09 0 0 1 .234-1.182L52.365 41.62a1.076 1.076 0 0 1 1.838.767v15.488Z"/></svg>
