<svg xmlns="http://www.w3.org/2000/svg" fill="none" viewBox="0 0 302 302"><path fill="#fff" fill-rule="evenodd" d="M46.65 63.473c-1.034.824-2.086 1.63-3.153 2.416-1.34.987-2.647 1.998-3.924 3.031l42.778 52.859a41.56 41.56 0 0 1 1.486-1.148 170.98 170.98 0 0 0 5.182-3.971L46.651 63.473ZM32.179 75.489l47.463 48.695a37.422 37.422 0 0 0-2.395 2.563l-51.82-44.03a105.383 105.383 0 0 1 6.752-7.228ZM19.384 90.552l55.757 38.925a36.046 36.046 0 0 0-1.826 2.901l-59.199-33.46a104.057 104.057 0 0 1 5.268-8.366Zm-9.723 17.203 62.101 27.702a37.035 37.035 0 0 0-1.268 3.247L6.062 116.968c1.05-3.115 2.25-6.19 3.599-9.213Zm-6.319 18.724 66.182 15.619a38.49 38.49 0 0 0-.658 3.512L1.52 136.203a106.457 106.457 0 0 1 1.822-9.724ZM.607 146.054l67.927 3.141a39.086 39.086 0 0 0 0 3.61L.607 155.947a107.092 107.092 0 0 1 0-9.893Zm.913 19.743 67.346-9.407c.166 1.185.385 2.356.658 3.512L3.342 175.521a106.457 106.457 0 0 1-1.822-9.724Zm4.542 19.235 64.432-21.735a37.139 37.139 0 0 0 1.268 3.246L9.661 194.245a105.064 105.064 0 0 1-3.6-9.213Zm8.054 18.05 59.199-33.459a36.03 36.03 0 0 0 1.826 2.9l-55.757 38.926a104.065 104.065 0 0 1-5.268-8.367Zm11.31 16.201 51.82-44.03a37.422 37.422 0 0 0 2.395 2.563l-47.463 48.695a105.206 105.206 0 0 1-6.751-7.228Zm14.147 13.797 42.778-52.859c.478.387.973.769 1.486 1.148a174.31 174.31 0 0 1 5.182 3.971l-42.368 53.187a106.54 106.54 0 0 0-3.154-2.416 109.77 109.77 0 0 1-3.924-3.031Zm13.102 10.628 46.242-49.856c3.192 2.96 6.271 6.039 9.231 9.231l-49.855 46.242a105.61 105.61 0 0 0-5.618-5.617Zm10.798 11.641 53.187-42.368a170.73 170.73 0 0 1 3.971 5.182 42.39 42.39 0 0 0 1.148 1.486L68.92 262.427a109.95 109.95 0 0 1-3.03-3.924 106.34 106.34 0 0 0-2.417-3.154Zm12.016 14.473a105.467 105.467 0 0 0 7.228 6.752l44.03-51.82a37.8 37.8 0 0 1-2.563-2.395l-48.695 47.463Zm15.063 12.794 38.925-55.757a36.306 36.306 0 0 0 2.901 1.827l-33.46 59.198a104.196 104.196 0 0 1-8.366-5.268Zm17.203 9.723 27.702-62.101c1.059.472 2.142.895 3.247 1.268l-21.736 64.432c-3.115-1.05-6.19-2.25-9.213-3.599Zm18.724 6.319 15.619-66.182c1.156.273 2.328.492 3.512.658l-9.407 67.346a106.511 106.511 0 0 1-9.724-1.822Zm19.575 2.735 3.141-67.927c1.202.056 2.408.056 3.61 0l3.142 67.927c-3.296.153-6.598.153-9.893 0Zm19.743-.913-9.407-67.346a38.53 38.53 0 0 0 3.512-.658l15.619 66.182a106.511 106.511 0 0 1-9.724 1.822Zm19.235-4.542-21.735-64.432a37.3 37.3 0 0 0 3.246-1.268l27.702 62.101a104.587 104.587 0 0 1-9.213 3.599Zm18.05-8.054-33.459-59.198a36.29 36.29 0 0 0 2.9-1.827l38.926 55.757a104.204 104.204 0 0 1-8.367 5.268Zm16.201-11.31-44.03-51.82a37.8 37.8 0 0 0 2.563-2.395l48.695 47.463a105.29 105.29 0 0 1-7.228 6.752Zm13.797-14.147-52.859-42.778a42.39 42.39 0 0 0 1.148-1.486 174.05 174.05 0 0 1 3.971-5.182l53.187 42.368a107.35 107.35 0 0 0-2.416 3.154 110.3 110.3 0 0 1-3.031 3.924Zm10.628-13.102a105.52 105.52 0 0 1 5.617-5.617l-46.242-49.856a173.204 173.204 0 0 0-9.231 9.231l49.856 46.242Zm11.641-10.798-42.368-53.187a174.05 174.05 0 0 1 5.182-3.971 42.39 42.39 0 0 0 1.486-1.148l42.778 52.859a110.3 110.3 0 0 1-3.924 3.031 107.35 107.35 0 0 0-3.154 2.416Zm14.473-12.016a105.29 105.29 0 0 0 6.752-7.228l-51.82-44.03a37.8 37.8 0 0 1-2.395 2.563l47.463 48.695Zm12.794-15.063-55.757-38.925a36.29 36.29 0 0 0 1.827-2.9l59.198 33.459a104.01 104.01 0 0 1-5.268 8.366Zm9.723-17.203-62.101-27.702a37.3 37.3 0 0 0 1.268-3.246l64.432 21.735c-1.05 3.115-2.25 6.19-3.599 9.213Zm6.319-18.724-66.182-15.619a38.53 38.53 0 0 0 .658-3.512l67.346 9.407a106.511 106.511 0 0 1-1.822 9.724Zm2.735-19.574-67.927-3.142a38.807 38.807 0 0 0 0-3.61l67.927-3.141c.153 3.295.153 6.597 0 9.893Zm-.913-19.744-67.346 9.407a38.594 38.594 0 0 0-.658-3.512l66.182-15.619a106.511 106.511 0 0 1 1.822 9.724Zm-4.542-19.235-64.432 21.736a37.196 37.196 0 0 0-1.268-3.247l62.101-27.702a104.587 104.587 0 0 1 3.599 9.213Zm-8.054-18.05-59.198 33.46a36.306 36.306 0 0 0-1.827-2.901l55.757-38.925a104.178 104.178 0 0 1 5.268 8.366Zm-11.31-16.201-51.82 44.03a37.8 37.8 0 0 0-2.395-2.563l47.463-48.695a105.444 105.444 0 0 1 6.752 7.228ZM262.427 68.92l-42.778 52.859a42.39 42.39 0 0 0-1.486-1.148 170.73 170.73 0 0 1-5.182-3.971l42.368-53.187a106.34 106.34 0 0 0 3.154 2.416 109.95 109.95 0 0 1 3.924 3.031Zm-13.102-10.628-46.242 49.856a173.346 173.346 0 0 1-9.231-9.23l49.856-46.243a105.61 105.61 0 0 0 5.617 5.617Zm-10.798-11.641L185.34 89.019a174.31 174.31 0 0 1-3.971-5.182 41.56 41.56 0 0 0-1.148-1.486l52.859-42.778a109.77 109.77 0 0 1 3.031 3.924 106.54 106.54 0 0 0 2.416 3.154Zm-12.016-14.473L177.816 79.64a37.422 37.422 0 0 0-2.563-2.395l44.03-51.82a105.206 105.206 0 0 1 7.228 6.752Zm-15.063-12.794-38.925 55.757a36.03 36.03 0 0 0-2.9-1.826l33.459-59.199a103.872 103.872 0 0 1 8.366 5.268Zm-17.203-9.723-27.702 62.101a37.139 37.139 0 0 0-3.246-1.268l21.735-64.432a105.06 105.06 0 0 1 9.213 3.599Zm-18.724-6.319-15.619 66.182a38.427 38.427 0 0 0-3.512-.658l9.407-67.346c3.263.456 6.508 1.063 9.724 1.822ZM155.947.607l-3.142 67.927a39.086 39.086 0 0 0-3.61 0L146.054.607c3.295-.153 6.597-.153 9.893 0Zm-19.744.913 9.407 67.346a38.49 38.49 0 0 0-3.512.658L126.479 3.342a106.457 106.457 0 0 1 9.724-1.822Zm-19.235 4.542 21.736 64.432a37.035 37.035 0 0 0-3.247 1.268L107.755 9.661a105.064 105.064 0 0 1 9.213-3.6Zm-18.05 8.054 33.46 59.199c-.99.56-1.958 1.168-2.901 1.826L90.552 19.384c2.72-1.9 5.512-3.655 8.366-5.268Zm-16.201 11.31 44.03 51.82a37.422 37.422 0 0 0-2.563 2.395L75.489 32.178a105.383 105.383 0 0 1 7.228-6.751ZM52.675 58.293l46.242 49.855c3.192-2.96 6.271-6.039 9.231-9.23L58.293 52.674a105.7 105.7 0 0 1-5.618 5.617ZM63.473 46.65l53.187 42.368a170.98 170.98 0 0 0 3.971-5.182 41.56 41.56 0 0 1 1.148-1.486L68.92 39.573a109.423 109.423 0 0 0-3.03 3.924 105.544 105.544 0 0 1-2.417 3.154Z" clip-rule="evenodd"/></svg>
