<svg xmlns="http://www.w3.org/2000/svg" fill="none" viewBox="0 0 302 302"><path fill="#fff" fill-rule="evenodd" d="M71.116 36.946a108.939 108.939 0 0 0-5.227 6.551A105.719 105.719 0 0 1 43.497 65.89a108.898 108.898 0 0 0-6.551 5.227 106.728 106.728 0 0 0-8.385 8.076 104.366 104.366 0 0 0-16.778 24.093 104.982 104.982 0 0 0-7.258 18.638A106.448 106.448 0 0 0 .89 141.781c18.078 5.137 37.836-3.085 46.61-20.49 4.39-8.704 10.894-16.692 19.727-23.2 2.942-2.169 5.8-4.445 8.565-6.823a40.033 40.033 0 0 0 7.262-8.214 40.035 40.035 0 0 0 8.213-7.262 145.736 145.736 0 0 0 6.824-8.565c6.508-8.833 14.495-15.338 23.2-19.726 17.405-8.775 25.627-28.532 20.489-46.61-6.699.578-13.351 1.79-19.857 3.634a104.977 104.977 0 0 0-18.638 7.258 104.127 104.127 0 0 0-24.093 16.778 105.883 105.883 0 0 0-8.076 8.385ZM160.22.89c-5.137 18.078 3.085 37.836 20.49 46.611 8.705 4.388 16.692 10.893 23.2 19.726 2.169 2.942 4.445 5.8 6.823 8.565a40.046 40.046 0 0 0 8.214 7.262 40.046 40.046 0 0 0 7.262 8.214 146.059 146.059 0 0 0 8.565 6.823c8.833 6.508 15.338 14.496 19.726 23.2 8.775 17.405 28.533 25.627 46.611 20.49a106.45 106.45 0 0 0-3.635-19.858 104.955 104.955 0 0 0-7.258-18.638 104.369 104.369 0 0 0-19.411-26.824 106.538 106.538 0 0 0-5.752-5.345 108.666 108.666 0 0 0-6.551-5.227 105.915 105.915 0 0 1-9.057-7.485 105.593 105.593 0 0 1-13.335-14.907 109.02 109.02 0 0 0-5.227-6.551 106.765 106.765 0 0 0-8.076-8.385 104.327 104.327 0 0 0-24.093-16.778 104.976 104.976 0 0 0-18.638-7.258A106.448 106.448 0 0 0 160.219.89ZM301.11 160.22c-18.078-5.138-37.836 3.084-46.611 20.489-4.388 8.705-10.893 16.692-19.726 23.201a145.56 145.56 0 0 0-8.565 6.823 40.031 40.031 0 0 0-7.262 8.213 40.062 40.062 0 0 0-8.214 7.262 146.081 146.081 0 0 0-6.823 8.566c-6.508 8.832-14.496 15.337-23.2 19.725-17.405 8.775-25.627 28.533-20.49 46.611a106.45 106.45 0 0 0 19.858-3.635 104.955 104.955 0 0 0 18.638-7.258 104.33 104.33 0 0 0 26.824-19.411 106.575 106.575 0 0 0 5.345-5.752 108.787 108.787 0 0 0 5.227-6.551 104.634 104.634 0 0 1 4.95-6.214 105.127 105.127 0 0 1 8.385-8.693 105.127 105.127 0 0 1 6.032-5.171c.994-.789 2.002-1.561 3.025-2.314a108.787 108.787 0 0 0 6.551-5.227 106.575 106.575 0 0 0 8.385-8.076 104.33 104.33 0 0 0 16.778-24.092 105.014 105.014 0 0 0 7.258-18.638 106.465 106.465 0 0 0 3.635-19.858ZM141.78 301.11c5.138-18.078-3.084-37.836-20.489-46.611-8.705-4.388-16.692-10.893-23.2-19.725a145.748 145.748 0 0 0-6.823-8.566 40.048 40.048 0 0 0-8.214-7.262 40.016 40.016 0 0 0-7.262-8.213 145.237 145.237 0 0 0-8.566-6.823c-8.832-6.509-15.337-14.496-19.725-23.201C38.726 163.304 18.968 155.083.89 160.22c.58 6.699 1.79 13.351 3.635 19.858 1.81 6.385 4.23 12.63 7.258 18.638a104.327 104.327 0 0 0 19.41 26.823 106.765 106.765 0 0 0 5.753 5.345 109.02 109.02 0 0 0 6.551 5.227 104.625 104.625 0 0 1 6.214 4.95 105.628 105.628 0 0 1 16.178 17.442 108.667 108.667 0 0 0 5.227 6.551 106.536 106.536 0 0 0 8.076 8.385 104.369 104.369 0 0 0 24.093 16.778 104.955 104.955 0 0 0 18.638 7.258 106.455 106.455 0 0 0 19.857 3.635Z" clip-rule="evenodd"/></svg>
