<svg xmlns="http://www.w3.org/2000/svg" fill="none" viewBox="0 0 350 224"><path fill="#fff" fill-rule="evenodd" d="m103.204 223.66 6.816-87.736c.637.05 1.297.076 1.98.076h7.875v88H112c-2.96 0-5.894-.115-8.796-.34Zm-17.361-2.731 20.476-85.584a23.139 23.139 0 0 1-3.482-1.131l-33.71 81.287a111.006 111.006 0 0 0 16.716 5.428Zm-32.37-13.419 46.05-74.989a24.267 24.267 0 0 1-3.08-2.243l-57.182 66.89a112.46 112.46 0 0 0 14.212 10.342ZM16.49 170.527a112.309 112.309 0 0 0 10.343 14.212l66.889-57.182a24.412 24.412 0 0 1-2.243-3.08l-74.99 46.05ZM230.125 224v-88H238c.683 0 1.343-.026 1.98-.076l6.816 87.736c-2.902.225-5.836.34-8.796.34h-7.875Zm34.032-3.071-20.476-85.584a23.03 23.03 0 0 0 3.482-1.132l33.709 81.288a110.998 110.998 0 0 1-16.715 5.428Zm32.37-13.419-46.05-74.989a24.317 24.317 0 0 0 3.08-2.243l57.182 66.89a112.413 112.413 0 0 1-14.212 10.342Zm26.641-22.771-66.89-57.182a24.317 24.317 0 0 0 2.243-3.08l74.989 46.05a112.413 112.413 0 0 1-10.342 14.212Zm18.333-29.867-81.287-33.709a23.139 23.139 0 0 0 1.131-3.482l85.584 20.476a110.998 110.998 0 0 1-5.428 16.715Zm8.159-34.076-87.736-6.816c.05-.637.076-1.297.076-1.98s-.026-1.343-.076-1.98l87.736-6.816a113.786 113.786 0 0 1 0 17.592Zm-2.731-34.953-85.584 20.476a23.139 23.139 0 0 0-1.131-3.482l81.287-33.71a111.006 111.006 0 0 1 5.428 16.716Zm-13.419-32.37-74.989 46.05a24.267 24.267 0 0 0-2.243-3.08l66.89-57.182a112.46 112.46 0 0 1 10.342 14.212Zm-22.771-26.64-57.182 66.889a24.412 24.412 0 0 0-3.08-2.243l46.05-74.99a112.309 112.309 0 0 1 14.212 10.343ZM280.872 8.498l-33.709 81.287a23.105 23.105 0 0 0-3.482-1.13L264.157 3.07a111.129 111.129 0 0 1 16.715 5.428ZM119.875 0H112c-2.96 0-5.894.115-8.796.34l6.816 87.736A25.55 25.55 0 0 1 112 88h7.875V0ZM85.843 3.07l20.476 85.585a23.105 23.105 0 0 0-3.482 1.132L69.127 8.499A111.137 111.137 0 0 1 85.844 3.07Zm-32.37 13.42 46.05 74.99a24.362 24.362 0 0 0-3.08 2.242l-57.182-66.89c4.45-3.803 9.2-7.264 14.212-10.342ZM26.833 39.26l66.889 57.182a24.362 24.362 0 0 0-2.243 3.08l-74.99-46.05a112.355 112.355 0 0 1 10.343-14.212ZM8.498 69.128l81.287 33.709a23.105 23.105 0 0 0-1.13 3.482L3.07 85.843a111.136 111.136 0 0 1 5.428-16.715ZM.34 103.204l87.736 6.816a25.55 25.55 0 0 0 0 3.96L.34 120.796a113.545 113.545 0 0 1 0-17.592Zm2.73 34.953 85.585-20.476a23.105 23.105 0 0 0 1.132 3.482L8.499 154.872a111.13 111.13 0 0 1-5.428-16.715ZM135.626 0v88h15.75V0h-15.75Zm31.5 0v88h15.75V0h-15.75Zm31.5 0v88h15.75V0h-15.75Zm31.5 0v88H238c.683 0 1.343.026 1.98.076L246.796.34C243.894.115 240.96 0 238 0h-7.875Zm-15.75 224v-88h-15.75v88h15.75Zm-31.5 0v-88h-15.75v88h15.75Zm-31.5 0v-88h-15.75v88h15.75Z" clip-rule="evenodd"/></svg>
