<svg xmlns="http://www.w3.org/2000/svg" fill="none" viewBox="0 0 350 224"><path fill="#fff" fill-rule="evenodd" d="M1.129 96.04A112.947 112.947 0 0 0 0 112c0 5.419.385 10.748 1.129 15.961a111.353 111.353 0 0 0 7.37 26.911 111.617 111.617 0 0 0 7.174 14.303 112.291 112.291 0 0 0 9.193 13.199c13.467-7.992 19.365-24.872 13.192-39.759C34.165 133.226 32 122.906 32 112c0-10.906 2.165-21.226 6.058-30.615 6.173-14.887.275-31.767-13.192-39.76a112.276 112.276 0 0 0-9.193 13.2 111.582 111.582 0 0 0-7.174 14.303 111.152 111.152 0 0 0-7.37 26.911Zm40.497-71.174c7.992 13.467 24.872 19.365 39.76 13.192C90.773 34.165 101.093 32 112 32h31.5c15.74 0 28.825-11.364 31.5-26.334C177.675 20.636 190.76 32 206.5 32H238c10.906 0 21.226 2.165 30.615 6.058 14.887 6.173 31.767.275 39.759-13.192a112.291 112.291 0 0 0-13.199-9.193 111.617 111.617 0 0 0-14.303-7.174C267.667 3.022 253.186 0 238 0H112C96.814 0 82.333 3.022 69.128 8.499a111.582 111.582 0 0 0-14.303 7.174 112.276 112.276 0 0 0-13.2 9.193Zm283.508 16.76c-13.467 7.992-19.365 24.872-13.192 39.76C315.835 90.773 318 101.093 318 112c0 10.906-2.165 21.226-6.058 30.615-6.173 14.887-.275 31.767 13.192 39.759a112.299 112.299 0 0 0 9.193-13.199 111.542 111.542 0 0 0 11.13-25.495 111.367 111.367 0 0 0 3.414-15.719A112.922 112.922 0 0 0 350 112c0-5.419-.385-10.748-1.129-15.96a111.238 111.238 0 0 0-7.37-26.911 111.507 111.507 0 0 0-7.174-14.303 112.283 112.283 0 0 0-9.193-13.2Zm-16.76 157.508c-7.992-13.467-24.872-19.365-39.759-13.192C259.226 189.835 248.906 192 238 192h-31.5c-15.74 0-28.825 11.364-31.5 26.334-2.675-14.97-15.76-26.334-31.5-26.334H112c-10.906 0-21.226-2.165-30.615-6.058-14.887-6.173-31.767-.275-39.76 13.192a112.283 112.283 0 0 0 13.2 9.193 111.507 111.507 0 0 0 14.303 7.174C82.333 220.978 96.814 224 112 224h126c15.186 0 29.667-3.022 42.872-8.499a111.542 111.542 0 0 0 14.303-7.174 112.299 112.299 0 0 0 13.199-9.193Z" clip-rule="evenodd"/></svg>
