<?xml version="1.0" standalone="no"?>
<!DOCTYPE svg PUBLIC "-//W3C//DTD SVG 20010904//EN"
 "http://www.w3.org/TR/2001/REC-SVG-20010904/DTD/svg10.dtd">
<svg version="1.0" xmlns="http://www.w3.org/2000/svg"
 width="260.000000pt" height="260.000000pt" viewBox="0 0 260.000000 260.000000"
 preserveAspectRatio="xMidYMid meet">
<metadata>
Created by potrace 1.14, written by Peter Selinger 2001-2017
</metadata>
<g transform="translate(0.000000,260.000000) scale(0.100000,-0.100000)"
fill="#000000" stroke="none">
<path d="M628 1588 l-3 -233 -227 -3 -228 -2 0 -45 0 -45 190 0 c105 0 190 -3
190 -7 0 -4 -79 -87 -176 -184 l-177 -177 29 -36 c16 -20 34 -36 39 -36 6 0
90 82 187 182 l177 183 0 -197 1 -198 45 0 45 0 2 233 3 232 228 3 227 2 0 45
0 45 -191 0 -191 0 72 78 c105 112 196 189 270 225 59 29 73 32 160 32 87 0
101 -3 160 -32 74 -36 165 -113 270 -225 l72 -78 -191 0 -191 0 0 -45 0 -45
228 -2 227 -3 3 -232 2 -233 45 0 45 0 1 198 0 197 177 -183 c97 -100 182
-182 187 -182 6 0 23 16 39 36 l29 36 -177 177 c-97 97 -176 180 -176 184 0 4
86 7 190 7 l190 0 0 45 0 45 -227 2 -228 3 -3 233 -2 232 -45 0 -45 0 0 -197
0 -196 -123 120 c-197 193 -281 237 -457 237 -175 -1 -262 -46 -457 -237
l-123 -120 0 196 0 197 -45 0 -45 0 -2 -232z"/>
</g>
</svg>
