<svg width="366" height="5203" xmlns="http://www.w3.org/2000/svg" xmlns:xlink="http://www.w3.org/1999/xlink"><defs><symbol viewBox="0 0 12 12" id="arrow-external"><path fill="currentColor" d="M2.9 2h6.9v6.6l-1 .9V3.7L2.7 9.6 2 8.8l6.1-5.9H2l.9-.9z" /></symbol><symbol viewBox="0 0 24 24" id="doc"><path fill="none" stroke="currentColor" stroke-linecap="round" stroke-linejoin="round" stroke-width="1.5" d="M5 5c0-.5.2-1 .6-1.4C6 3.2 6.5 3 7 3h10c.5 0 1 .2 1.4.6.4.4.6.9.6 1.4v14c0 .5-.2 1-.6 1.4-.4.4-.9.6-1.4.6H7c-.5 0-1-.2-1.4-.6-.4-.4-.6-.9-.6-1.4V5zm4 2h6m-6 4h6m-6 4h4" /></symbol><symbol viewBox="0 0 24 24" id="github"><path fill="currentColor" d="M5.3 2.1c.8-.1 1.9.1 3.3 1l.3.2.2.1.4-.1c1.5-.3 3-.4 4.6-.1l.5.1.4.1.2-.1c1.4-.8 2.5-1.2 3.3-1.1h.5c.2.1.4.3.5.5.4.9.5 1.9.4 2.9v.5l.1.2c.5.7.9 1.7 1 2.6v.6c0 3.9-1.7 5.9-4.6 6.7l-.2.1h-.1v4.8c0 .2-.1.5-.3.7-.2.2-.4.3-.6.3L15 22H9c-.2 0-.5-.1-.7-.3-.1-.1-.3-.3-.3-.6V20.3c-1.8.3-3-.4-4.1-1.9l-.5-.8c-.3-.4-.5-.6-.6-.6-.2-.1-.5-.3-.6-.5-.2-.3-.2-.5-.1-.8.1-.2.2-.5.5-.6.2-.1.4-.1.7-.1.6.2 1.1.6 1.6 1.2l.5.8c.8 1.1 1.4 1.5 2.6 1.2v-2h-.1c-3-.7-4.7-2.6-4.9-6.1v-.6c0-1.1.3-2.1.9-3.1l.2-.2.1-.2v-.2C4 5 4 4.1 4.3 3.2l.1-.3.1-.3c.1-.1.3-.3.5-.4h.1l.2-.1z" /></symbol><symbol fill="none" viewBox="0 0 366 366" id="inview-01"><path fill="#fff" fill-rule="evenodd" d="M342.928 271.235a182.03 182.03 0 0 0 8.876-18.408c8.94-21.558 13.874-45.197 13.874-69.988 0-24.792-4.934-48.431-13.874-69.989a182.013 182.013 0 0 0-8.876-18.407 183.1 183.1 0 0 0-10.917-17.354c-17.984 9.924-26.012 31.998-17.96 51.417 6.918 16.682 10.757 35.008 10.757 54.333 0 19.325-3.839 37.65-10.757 54.333-8.052 19.419-.024 41.492 17.96 51.417a183.071 183.071 0 0 0 10.917-17.354Zm-54.339 60.776c-9.925-17.984-31.998-26.012-51.417-17.96-16.683 6.918-35.008 10.757-54.333 10.757-19.325 0-37.651-3.839-54.333-10.757-19.419-8.052-41.493-.024-51.417 17.96a183.1 183.1 0 0 0 17.354 10.917 182.013 182.013 0 0 0 18.407 8.876c21.558 8.94 45.197 13.874 69.989 13.874 24.791 0 48.43-4.934 69.988-13.874a182.03 182.03 0 0 0 18.408-8.876 183.071 183.071 0 0 0 17.354-10.917ZM33.667 288.589c17.984-9.925 26.012-31.998 17.96-51.417-6.919-16.683-10.757-35.008-10.757-54.333 0-19.325 3.839-37.651 10.757-54.333 8.052-19.419.024-41.493-17.96-51.417A182.938 182.938 0 0 0 22.75 94.443a182.097 182.097 0 0 0-8.876 18.407C4.934 134.408 0 158.047 0 182.839c0 24.791 4.934 48.43 13.874 69.988a182.113 182.113 0 0 0 8.876 18.408 182.91 182.91 0 0 0 10.917 17.354ZM77.089 33.667c9.924 17.984 31.998 26.012 51.417 17.96 16.682-6.919 35.008-10.757 54.333-10.757 19.325 0 37.65 3.839 54.333 10.757 19.419 8.052 41.492.024 51.417-17.96a182.91 182.91 0 0 0-17.354-10.917 182.113 182.113 0 0 0-18.408-8.876C231.269 4.934 207.63 0 182.839 0c-24.792 0-48.431 4.934-69.989 13.874a182.097 182.097 0 0 0-18.407 8.876c-6 3.32-11.792 6.966-17.354 10.917Z" clip-rule="evenodd" /></symbol><symbol fill="none" viewBox="0 0 366 366" id="inview-02"><circle cx="182.839" cy="182.839" r="117.77" stroke="#000" stroke-width="130.138" /></symbol><symbol fill="none" viewBox="0 0 366 366" id="inview-03"><circle cx="182.839" cy="182.839" r="144.12" stroke="#fff" stroke-width="77.438" /></symbol><symbol fill="none" viewBox="0 0 366 366" id="inview-04"><circle cx="182.839" cy="182.839" r="140.356" stroke="#F4574D" stroke-width="84.966" /></symbol><symbol fill="none" viewBox="0 0 366 366" id="inview-05"><path fill="#fff" fill-rule="evenodd" d="m364.132 206.719-151.441-19.754c.167-1.283.262-2.655.262-4.126 0-1.471-.095-2.844-.262-4.126l151.441-19.755a184.48 184.48 0 0 1 1.546 23.881c0 8.094-.526 16.065-1.546 23.88Zm-12.328-93.869-141.076 58.502a29.89 29.89 0 0 0-3.923-6.764L327.903 71.53a182.663 182.663 0 0 1 23.901 41.32Zm-57.656-75.075-93.059 121.098a29.905 29.905 0 0 0-6.763-3.924l58.501-141.075a182.624 182.624 0 0 1 41.321 23.9Zm-87.429-36.23-19.754 151.442a31.722 31.722 0 0 0-4.126-.263 31.71 31.71 0 0 0-4.126.263L158.958 1.545A184.569 184.569 0 0 1 182.839 0c8.094 0 16.065.526 23.88 1.545ZM112.85 13.874l58.502 141.075a29.933 29.933 0 0 0-6.764 3.924L71.53 37.775a182.65 182.65 0 0 1 41.32-23.901ZM37.775 71.53l121.098 93.058a29.933 29.933 0 0 0-3.924 6.764L13.874 112.85a182.65 182.65 0 0 1 23.9-41.32Zm-36.23 87.428 151.442 19.755a31.71 31.71 0 0 0-.263 4.126c0 1.471.095 2.843.263 4.126L1.545 206.719A184.542 184.542 0 0 1 0 182.839c0-8.094.526-16.065 1.545-23.881Zm12.329 93.869 141.075-58.501a29.905 29.905 0 0 0 3.924 6.763L37.775 294.148a182.624 182.624 0 0 1-23.901-41.321Zm57.656 75.076 93.058-121.098a29.89 29.89 0 0 0 6.764 3.923L112.85 351.804a182.663 182.663 0 0 1-41.32-23.901Zm87.428 36.229 19.755-151.441c1.282.167 2.655.262 4.126.262 1.471 0 2.843-.095 4.126-.262l19.754 151.441a184.453 184.453 0 0 1-23.88 1.546 184.48 184.48 0 0 1-23.881-1.546Zm93.869-12.328-58.501-141.076a29.863 29.863 0 0 0 6.763-3.923l93.059 121.098a182.636 182.636 0 0 1-41.321 23.901Zm75.076-57.656-121.098-93.059a29.863 29.863 0 0 0 3.923-6.763l141.076 58.501a182.636 182.636 0 0 1-23.901 41.321Z" clip-rule="evenodd" /></symbol><symbol fill="none" viewBox="0 0 366 366" id="inview-06"><circle cx="182.839" cy="182.839" r="108.628" stroke="#fff" stroke-linecap="round" stroke-linejoin="round" stroke-width="148.422" /></symbol><symbol fill="none" viewBox="0 0 67 72" id="logo-lenis"><path fill="currentColor" d="m66.875 26.733-32.659 32.85H27.66a1.072 1.072 0 0 1-.995-.67 1.091 1.091 0 0 1 .235-1.18l9.23-9.29a3.913 3.913 0 0 0 1.133-2.758v-27.52a1.088 1.088 0 0 1 .316-.768l4.988-5.017a3.866 3.866 0 0 1 2.724 1.153 3.912 3.912 0 0 1 1.126 2.748v7.834a2.612 2.612 0 0 1-.757 1.84l-.708.713.131.173 12.102-12.166V.002h-.216v5.385a.653.653 0 0 1-.462.62.643.643 0 0 1-.723-.264 8.638 8.638 0 0 0-3.115-2.896 8.578 8.578 0 0 0-4.11-1.05H38.432l-8.855 8.938-3.447 3.468a1.074 1.074 0 0 1-1.838-.767V0h-.215v6.215a.651.651 0 0 1-.507.636.642.642 0 0 1-.726-.36c-1.723-3.722-4.362-4.699-4.362-4.699L6.127 14.077l.151.154.545-.542c2.27-2.251 6.136-.943 6.564 2.237.093.699.137 1.403.134 2.108v40.212L0 71.846.153 72l.53-.533a3.867 3.867 0 0 1 2.736-1.147h39.092l21.303-21.557a3.912 3.912 0 0 0 1.135-2.757V30.562c0-1.034.409-2.026 1.135-2.757l.916-.92-.125-.152Zm-42.558.964V16.34l3.938-3.962h11.403a1.073 1.073 0 0 1 .997.669 1.09 1.09 0 0 1-.234 1.182L26.152 28.58a1.075 1.075 0 0 1-1.84-.767l.005-.117Zm0 3.034 2.18-2.195v16.673l-2.184 2.197.004-16.675Zm.43 28.845H15.12a1.07 1.07 0 0 1-.997-.668 1.09 1.09 0 0 1 .234-1.182l10.3-10.359a1.075 1.075 0 0 1 1.84.765v9.672l-1.75 1.772Zm29.456-1.7a.653.653 0 0 1-.19.459l-1.042 1.05a.645.645 0 0 1-.457.191h-15.4a1.07 1.07 0 0 1-.997-.668 1.09 1.09 0 0 1 .234-1.182L52.365 41.62a1.076 1.076 0 0 1 1.838.767v15.488Z" /></symbol><symbol fill="none" viewBox="0 0 79 35" id="logo-locomotive"><path fill="currentColor" d="M35.298 15.833H21.85l4.79-4.75C31.517 6.25 35.047 4.417 39.5 4.417c4.454 0 7.984 1.833 12.858 6.666l4.79 4.75H43.703v3.334H59.67V35h3.362V21.667l12.606 12.5 2.522-2.5-12.607-12.5H79v-3.334H63.032V0H59.67v13.333l-4.79-4.75c-5.463-5.416-9.75-7.5-15.38-7.5-5.63 0-9.917 2.084-15.38 7.5l-4.79 4.75V0h-3.362v15.833H0v3.334h13.447L.84 31.667l2.522 2.5 12.606-12.5V35h3.362V19.167h15.968v-3.334Z" /></symbol><symbol fill="none" viewBox="0 0 302 302" id="parallax-01"><path stroke="#000" stroke-width="114.14" d="M77.353 111.832a162.792 162.792 0 0 0 34.479-34.479c19.446-26.387 58.89-26.387 78.336 0a162.792 162.792 0 0 0 34.479 34.479c26.388 19.446 26.388 58.89 0 78.336a162.792 162.792 0 0 0-34.479 34.479c-19.446 26.388-58.89 26.388-78.336 0a162.792 162.792 0 0 0-34.479-34.479c-26.387-19.446-26.387-58.89 0-78.336Z" /></symbol><symbol fill="none" viewBox="0 0 302 302" id="parallax-02">
    <path stroke="#F4574D" stroke-linecap="round" stroke-linejoin="round" stroke-width="92.42" d="M70.91 103.09a151.949 151.949 0 0 0 32.18-32.18c23.785-32.277 72.035-32.277 95.82 0a151.942 151.942 0 0 0 32.179 32.18c32.278 23.785 32.278 72.035 0 95.82a151.935 151.935 0 0 0-32.179 32.179c-23.785 32.278-72.035 32.278-95.82 0a151.942 151.942 0 0 0-32.18-32.179c-32.277-23.785-32.277-72.035 0-95.82Z" />
</symbol><symbol fill="none" viewBox="0 0 302 302" id="parallax-03"><path fill="#fff" fill-rule="evenodd" d="M71.116 36.946a108.939 108.939 0 0 0-5.227 6.551A105.719 105.719 0 0 1 43.497 65.89a108.898 108.898 0 0 0-6.551 5.227 106.728 106.728 0 0 0-8.385 8.076 104.366 104.366 0 0 0-16.778 24.093 104.982 104.982 0 0 0-7.258 18.638A106.448 106.448 0 0 0 .89 141.781c18.078 5.137 37.836-3.085 46.61-20.49 4.39-8.704 10.894-16.692 19.727-23.2 2.942-2.169 5.8-4.445 8.565-6.823a40.033 40.033 0 0 0 7.262-8.214 40.035 40.035 0 0 0 8.213-7.262 145.736 145.736 0 0 0 6.824-8.565c6.508-8.833 14.495-15.338 23.2-19.726 17.405-8.775 25.627-28.532 20.489-46.61-6.699.578-13.351 1.79-19.857 3.634a104.977 104.977 0 0 0-18.638 7.258 104.127 104.127 0 0 0-24.093 16.778 105.883 105.883 0 0 0-8.076 8.385ZM160.22.89c-5.137 18.078 3.085 37.836 20.49 46.611 8.705 4.388 16.692 10.893 23.2 19.726 2.169 2.942 4.445 5.8 6.823 8.565a40.046 40.046 0 0 0 8.214 7.262 40.046 40.046 0 0 0 7.262 8.214 146.059 146.059 0 0 0 8.565 6.823c8.833 6.508 15.338 14.496 19.726 23.2 8.775 17.405 28.533 25.627 46.611 20.49a106.45 106.45 0 0 0-3.635-19.858 104.955 104.955 0 0 0-7.258-18.638 104.369 104.369 0 0 0-19.411-26.824 106.538 106.538 0 0 0-5.752-5.345 108.666 108.666 0 0 0-6.551-5.227 105.915 105.915 0 0 1-9.057-7.485 105.593 105.593 0 0 1-13.335-14.907 109.02 109.02 0 0 0-5.227-6.551 106.765 106.765 0 0 0-8.076-8.385 104.327 104.327 0 0 0-24.093-16.778 104.976 104.976 0 0 0-18.638-7.258A106.448 106.448 0 0 0 160.219.89ZM301.11 160.22c-18.078-5.138-37.836 3.084-46.611 20.489-4.388 8.705-10.893 16.692-19.726 23.201a145.56 145.56 0 0 0-8.565 6.823 40.031 40.031 0 0 0-7.262 8.213 40.062 40.062 0 0 0-8.214 7.262 146.081 146.081 0 0 0-6.823 8.566c-6.508 8.832-14.496 15.337-23.2 19.725-17.405 8.775-25.627 28.533-20.49 46.611a106.45 106.45 0 0 0 19.858-3.635 104.955 104.955 0 0 0 18.638-7.258 104.33 104.33 0 0 0 26.824-19.411 106.575 106.575 0 0 0 5.345-5.752 108.787 108.787 0 0 0 5.227-6.551 104.634 104.634 0 0 1 4.95-6.214 105.127 105.127 0 0 1 8.385-8.693 105.127 105.127 0 0 1 6.032-5.171c.994-.789 2.002-1.561 3.025-2.314a108.787 108.787 0 0 0 6.551-5.227 106.575 106.575 0 0 0 8.385-8.076 104.33 104.33 0 0 0 16.778-24.092 105.014 105.014 0 0 0 7.258-18.638 106.465 106.465 0 0 0 3.635-19.858ZM141.78 301.11c5.138-18.078-3.084-37.836-20.489-46.611-8.705-4.388-16.692-10.893-23.2-19.725a145.748 145.748 0 0 0-6.823-8.566 40.048 40.048 0 0 0-8.214-7.262 40.016 40.016 0 0 0-7.262-8.213 145.237 145.237 0 0 0-8.566-6.823c-8.832-6.509-15.337-14.496-19.725-23.201C38.726 163.304 18.968 155.083.89 160.22c.58 6.699 1.79 13.351 3.635 19.858 1.81 6.385 4.23 12.63 7.258 18.638a104.327 104.327 0 0 0 19.41 26.823 106.765 106.765 0 0 0 5.753 5.345 109.02 109.02 0 0 0 6.551 5.227 104.625 104.625 0 0 1 6.214 4.95 105.628 105.628 0 0 1 16.178 17.442 108.667 108.667 0 0 0 5.227 6.551 106.536 106.536 0 0 0 8.076 8.385 104.369 104.369 0 0 0 24.093 16.778 104.955 104.955 0 0 0 18.638 7.258 106.455 106.455 0 0 0 19.857 3.635Z" clip-rule="evenodd" /></symbol><symbol fill="none" viewBox="0 0 302 302" id="parallax-04"><path stroke="#fff" stroke-linecap="round" stroke-linejoin="round" stroke-width="92.42" d="M70.91 103.09a151.949 151.949 0 0 0 32.18-32.18c23.785-32.277 72.035-32.277 95.82 0a151.942 151.942 0 0 0 32.179 32.18c32.278 23.785 32.278 72.035 0 95.82a151.935 151.935 0 0 0-32.179 32.179c-23.785 32.278-72.035 32.278-95.82 0a151.942 151.942 0 0 0-32.18-32.179c-32.277-23.785-32.277-72.035 0-95.82Z" /></symbol><symbol fill="none" viewBox="0 0 302 302" id="parallax-05"><path fill="#fff" fill-rule="evenodd" d="M46.65 63.473c-1.034.824-2.086 1.63-3.153 2.416-1.34.987-2.647 1.998-3.924 3.031l42.778 52.859a41.56 41.56 0 0 1 1.486-1.148 170.98 170.98 0 0 0 5.182-3.971L46.651 63.473ZM32.179 75.489l47.463 48.695a37.422 37.422 0 0 0-2.395 2.563l-51.82-44.03a105.383 105.383 0 0 1 6.752-7.228ZM19.384 90.552l55.757 38.925a36.046 36.046 0 0 0-1.826 2.901l-59.199-33.46a104.057 104.057 0 0 1 5.268-8.366Zm-9.723 17.203 62.101 27.702a37.035 37.035 0 0 0-1.268 3.247L6.062 116.968c1.05-3.115 2.25-6.19 3.599-9.213Zm-6.319 18.724 66.182 15.619a38.49 38.49 0 0 0-.658 3.512L1.52 136.203a106.457 106.457 0 0 1 1.822-9.724ZM.607 146.054l67.927 3.141a39.086 39.086 0 0 0 0 3.61L.607 155.947a107.092 107.092 0 0 1 0-9.893Zm.913 19.743 67.346-9.407c.166 1.185.385 2.356.658 3.512L3.342 175.521a106.457 106.457 0 0 1-1.822-9.724Zm4.542 19.235 64.432-21.735a37.139 37.139 0 0 0 1.268 3.246L9.661 194.245a105.064 105.064 0 0 1-3.6-9.213Zm8.054 18.05 59.199-33.459a36.03 36.03 0 0 0 1.826 2.9l-55.757 38.926a104.065 104.065 0 0 1-5.268-8.367Zm11.31 16.201 51.82-44.03a37.422 37.422 0 0 0 2.395 2.563l-47.463 48.695a105.206 105.206 0 0 1-6.751-7.228Zm14.147 13.797 42.778-52.859c.478.387.973.769 1.486 1.148a174.31 174.31 0 0 1 5.182 3.971l-42.368 53.187a106.54 106.54 0 0 0-3.154-2.416 109.77 109.77 0 0 1-3.924-3.031Zm13.102 10.628 46.242-49.856c3.192 2.96 6.271 6.039 9.231 9.231l-49.855 46.242a105.61 105.61 0 0 0-5.618-5.617Zm10.798 11.641 53.187-42.368a170.73 170.73 0 0 1 3.971 5.182 42.39 42.39 0 0 0 1.148 1.486L68.92 262.427a109.95 109.95 0 0 1-3.03-3.924 106.34 106.34 0 0 0-2.417-3.154Zm12.016 14.473a105.467 105.467 0 0 0 7.228 6.752l44.03-51.82a37.8 37.8 0 0 1-2.563-2.395l-48.695 47.463Zm15.063 12.794 38.925-55.757a36.306 36.306 0 0 0 2.901 1.827l-33.46 59.198a104.196 104.196 0 0 1-8.366-5.268Zm17.203 9.723 27.702-62.101c1.059.472 2.142.895 3.247 1.268l-21.736 64.432c-3.115-1.05-6.19-2.25-9.213-3.599Zm18.724 6.319 15.619-66.182c1.156.273 2.328.492 3.512.658l-9.407 67.346a106.511 106.511 0 0 1-9.724-1.822Zm19.575 2.735 3.141-67.927c1.202.056 2.408.056 3.61 0l3.142 67.927c-3.296.153-6.598.153-9.893 0Zm19.743-.913-9.407-67.346a38.53 38.53 0 0 0 3.512-.658l15.619 66.182a106.511 106.511 0 0 1-9.724 1.822Zm19.235-4.542-21.735-64.432a37.3 37.3 0 0 0 3.246-1.268l27.702 62.101a104.587 104.587 0 0 1-9.213 3.599Zm18.05-8.054-33.459-59.198a36.29 36.29 0 0 0 2.9-1.827l38.926 55.757a104.204 104.204 0 0 1-8.367 5.268Zm16.201-11.31-44.03-51.82a37.8 37.8 0 0 0 2.563-2.395l48.695 47.463a105.29 105.29 0 0 1-7.228 6.752Zm13.797-14.147-52.859-42.778a42.39 42.39 0 0 0 1.148-1.486 174.05 174.05 0 0 1 3.971-5.182l53.187 42.368a107.35 107.35 0 0 0-2.416 3.154 110.3 110.3 0 0 1-3.031 3.924Zm10.628-13.102a105.52 105.52 0 0 1 5.617-5.617l-46.242-49.856a173.204 173.204 0 0 0-9.231 9.231l49.856 46.242Zm11.641-10.798-42.368-53.187a174.05 174.05 0 0 1 5.182-3.971 42.39 42.39 0 0 0 1.486-1.148l42.778 52.859a110.3 110.3 0 0 1-3.924 3.031 107.35 107.35 0 0 0-3.154 2.416Zm14.473-12.016a105.29 105.29 0 0 0 6.752-7.228l-51.82-44.03a37.8 37.8 0 0 1-2.395 2.563l47.463 48.695Zm12.794-15.063-55.757-38.925a36.29 36.29 0 0 0 1.827-2.9l59.198 33.459a104.01 104.01 0 0 1-5.268 8.366Zm9.723-17.203-62.101-27.702a37.3 37.3 0 0 0 1.268-3.246l64.432 21.735c-1.05 3.115-2.25 6.19-3.599 9.213Zm6.319-18.724-66.182-15.619a38.53 38.53 0 0 0 .658-3.512l67.346 9.407a106.511 106.511 0 0 1-1.822 9.724Zm2.735-19.574-67.927-3.142a38.807 38.807 0 0 0 0-3.61l67.927-3.141c.153 3.295.153 6.597 0 9.893Zm-.913-19.744-67.346 9.407a38.594 38.594 0 0 0-.658-3.512l66.182-15.619a106.511 106.511 0 0 1 1.822 9.724Zm-4.542-19.235-64.432 21.736a37.196 37.196 0 0 0-1.268-3.247l62.101-27.702a104.587 104.587 0 0 1 3.599 9.213Zm-8.054-18.05-59.198 33.46a36.306 36.306 0 0 0-1.827-2.901l55.757-38.925a104.178 104.178 0 0 1 5.268 8.366Zm-11.31-16.201-51.82 44.03a37.8 37.8 0 0 0-2.395-2.563l47.463-48.695a105.444 105.444 0 0 1 6.752 7.228ZM262.427 68.92l-42.778 52.859a42.39 42.39 0 0 0-1.486-1.148 170.73 170.73 0 0 1-5.182-3.971l42.368-53.187a106.34 106.34 0 0 0 3.154 2.416 109.95 109.95 0 0 1 3.924 3.031Zm-13.102-10.628-46.242 49.856a173.346 173.346 0 0 1-9.231-9.23l49.856-46.243a105.61 105.61 0 0 0 5.617 5.617Zm-10.798-11.641L185.34 89.019a174.31 174.31 0 0 1-3.971-5.182 41.56 41.56 0 0 0-1.148-1.486l52.859-42.778a109.77 109.77 0 0 1 3.031 3.924 106.54 106.54 0 0 0 2.416 3.154Zm-12.016-14.473L177.816 79.64a37.422 37.422 0 0 0-2.563-2.395l44.03-51.82a105.206 105.206 0 0 1 7.228 6.752Zm-15.063-12.794-38.925 55.757a36.03 36.03 0 0 0-2.9-1.826l33.459-59.199a103.872 103.872 0 0 1 8.366 5.268Zm-17.203-9.723-27.702 62.101a37.139 37.139 0 0 0-3.246-1.268l21.735-64.432a105.06 105.06 0 0 1 9.213 3.599Zm-18.724-6.319-15.619 66.182a38.427 38.427 0 0 0-3.512-.658l9.407-67.346c3.263.456 6.508 1.063 9.724 1.822ZM155.947.607l-3.142 67.927a39.086 39.086 0 0 0-3.61 0L146.054.607c3.295-.153 6.597-.153 9.893 0Zm-19.744.913 9.407 67.346a38.49 38.49 0 0 0-3.512.658L126.479 3.342a106.457 106.457 0 0 1 9.724-1.822Zm-19.235 4.542 21.736 64.432a37.035 37.035 0 0 0-3.247 1.268L107.755 9.661a105.064 105.064 0 0 1 9.213-3.6Zm-18.05 8.054 33.46 59.199c-.99.56-1.958 1.168-2.901 1.826L90.552 19.384c2.72-1.9 5.512-3.655 8.366-5.268Zm-16.201 11.31 44.03 51.82a37.422 37.422 0 0 0-2.563 2.395L75.489 32.178a105.383 105.383 0 0 1 7.228-6.751ZM52.675 58.293l46.242 49.855c3.192-2.96 6.271-6.039 9.231-9.23L58.293 52.674a105.7 105.7 0 0 1-5.618 5.617ZM63.473 46.65l53.187 42.368a170.98 170.98 0 0 0 3.971-5.182 41.56 41.56 0 0 1 1.148-1.486L68.92 39.573a109.423 109.423 0 0 0-3.03 3.924 105.544 105.544 0 0 1-2.417 3.154Z" clip-rule="evenodd" /></symbol><symbol fill="none" viewBox="0 0 350 224" id="progress-01"><path fill="#fff" fill-rule="evenodd" d="M1.129 96.04A112.947 112.947 0 0 0 0 112c0 5.419.385 10.748 1.129 15.961a111.353 111.353 0 0 0 7.37 26.911 111.617 111.617 0 0 0 7.174 14.303 112.291 112.291 0 0 0 9.193 13.199c13.467-7.992 19.365-24.872 13.192-39.759C34.165 133.226 32 122.906 32 112c0-10.906 2.165-21.226 6.058-30.615 6.173-14.887.275-31.767-13.192-39.76a112.276 112.276 0 0 0-9.193 13.2 111.582 111.582 0 0 0-7.174 14.303 111.152 111.152 0 0 0-7.37 26.911Zm40.497-71.174c7.992 13.467 24.872 19.365 39.76 13.192C90.773 34.165 101.093 32 112 32h31.5c15.74 0 28.825-11.364 31.5-26.334C177.675 20.636 190.76 32 206.5 32H238c10.906 0 21.226 2.165 30.615 6.058 14.887 6.173 31.767.275 39.759-13.192a112.291 112.291 0 0 0-13.199-9.193 111.617 111.617 0 0 0-14.303-7.174C267.667 3.022 253.186 0 238 0H112C96.814 0 82.333 3.022 69.128 8.499a111.582 111.582 0 0 0-14.303 7.174 112.276 112.276 0 0 0-13.2 9.193Zm283.508 16.76c-13.467 7.992-19.365 24.872-13.192 39.76C315.835 90.773 318 101.093 318 112c0 10.906-2.165 21.226-6.058 30.615-6.173 14.887-.275 31.767 13.192 39.759a112.299 112.299 0 0 0 9.193-13.199 111.542 111.542 0 0 0 11.13-25.495 111.367 111.367 0 0 0 3.414-15.719A112.922 112.922 0 0 0 350 112c0-5.419-.385-10.748-1.129-15.96a111.238 111.238 0 0 0-7.37-26.911 111.507 111.507 0 0 0-7.174-14.303 112.283 112.283 0 0 0-9.193-13.2Zm-16.76 157.508c-7.992-13.467-24.872-19.365-39.759-13.192C259.226 189.835 248.906 192 238 192h-31.5c-15.74 0-28.825 11.364-31.5 26.334-2.675-14.97-15.76-26.334-31.5-26.334H112c-10.906 0-21.226-2.165-30.615-6.058-14.887-6.173-31.767-.275-39.76 13.192a112.283 112.283 0 0 0 13.2 9.193 111.507 111.507 0 0 0 14.303 7.174C82.333 220.978 96.814 224 112 224h126c15.186 0 29.667-3.022 42.872-8.499a111.542 111.542 0 0 0 14.303-7.174 112.299 112.299 0 0 0 13.199-9.193Z" clip-rule="evenodd" /></symbol><symbol fill="none" viewBox="0 0 350 224" id="progress-02"><rect width="257.58" height="131.58" x="46.21" y="46.21" stroke="#fff" stroke-linecap="round" stroke-linejoin="round" stroke-width="92.42" rx="65.79" /></symbol><symbol fill="none" viewBox="0 0 350 224" id="progress-03"><rect width="238" height="112" x="56" y="56" stroke="#000" stroke-width="112" rx="56" /></symbol><symbol fill="none" viewBox="0 0 350 224" id="progress-04"><path fill="#fff" fill-rule="evenodd" d="m103.204 223.66 6.816-87.736c.637.05 1.297.076 1.98.076h7.875v88H112c-2.96 0-5.894-.115-8.796-.34Zm-17.361-2.731 20.476-85.584a23.139 23.139 0 0 1-3.482-1.131l-33.71 81.287a111.006 111.006 0 0 0 16.716 5.428Zm-32.37-13.419 46.05-74.989a24.267 24.267 0 0 1-3.08-2.243l-57.182 66.89a112.46 112.46 0 0 0 14.212 10.342ZM16.49 170.527a112.309 112.309 0 0 0 10.343 14.212l66.889-57.182a24.412 24.412 0 0 1-2.243-3.08l-74.99 46.05ZM230.125 224v-88H238c.683 0 1.343-.026 1.98-.076l6.816 87.736c-2.902.225-5.836.34-8.796.34h-7.875Zm34.032-3.071-20.476-85.584a23.03 23.03 0 0 0 3.482-1.132l33.709 81.288a110.998 110.998 0 0 1-16.715 5.428Zm32.37-13.419-46.05-74.989a24.317 24.317 0 0 0 3.08-2.243l57.182 66.89a112.413 112.413 0 0 1-14.212 10.342Zm26.641-22.771-66.89-57.182a24.317 24.317 0 0 0 2.243-3.08l74.989 46.05a112.413 112.413 0 0 1-10.342 14.212Zm18.333-29.867-81.287-33.709a23.139 23.139 0 0 0 1.131-3.482l85.584 20.476a110.998 110.998 0 0 1-5.428 16.715Zm8.159-34.076-87.736-6.816c.05-.637.076-1.297.076-1.98s-.026-1.343-.076-1.98l87.736-6.816a113.786 113.786 0 0 1 0 17.592Zm-2.731-34.953-85.584 20.476a23.139 23.139 0 0 0-1.131-3.482l81.287-33.71a111.006 111.006 0 0 1 5.428 16.716Zm-13.419-32.37-74.989 46.05a24.267 24.267 0 0 0-2.243-3.08l66.89-57.182a112.46 112.46 0 0 1 10.342 14.212Zm-22.771-26.64-57.182 66.889a24.412 24.412 0 0 0-3.08-2.243l46.05-74.99a112.309 112.309 0 0 1 14.212 10.343ZM280.872 8.498l-33.709 81.287a23.105 23.105 0 0 0-3.482-1.13L264.157 3.07a111.129 111.129 0 0 1 16.715 5.428ZM119.875 0H112c-2.96 0-5.894.115-8.796.34l6.816 87.736A25.55 25.55 0 0 1 112 88h7.875V0ZM85.843 3.07l20.476 85.585a23.105 23.105 0 0 0-3.482 1.132L69.127 8.499A111.137 111.137 0 0 1 85.844 3.07Zm-32.37 13.42 46.05 74.99a24.362 24.362 0 0 0-3.08 2.242l-57.182-66.89c4.45-3.803 9.2-7.264 14.212-10.342ZM26.833 39.26l66.889 57.182a24.362 24.362 0 0 0-2.243 3.08l-74.99-46.05a112.355 112.355 0 0 1 10.343-14.212ZM8.498 69.128l81.287 33.709a23.105 23.105 0 0 0-1.13 3.482L3.07 85.843a111.136 111.136 0 0 1 5.428-16.715ZM.34 103.204l87.736 6.816a25.55 25.55 0 0 0 0 3.96L.34 120.796a113.545 113.545 0 0 1 0-17.592Zm2.73 34.953 85.585-20.476a23.105 23.105 0 0 0 1.132 3.482L8.499 154.872a111.13 111.13 0 0 1-5.428-16.715ZM135.626 0v88h15.75V0h-15.75Zm31.5 0v88h15.75V0h-15.75Zm31.5 0v88h15.75V0h-15.75Zm31.5 0v88H238c.683 0 1.343.026 1.98.076L246.796.34C243.894.115 240.96 0 238 0h-7.875Zm-15.75 224v-88h-15.75v88h15.75Zm-31.5 0v-88h-15.75v88h15.75Zm-31.5 0v-88h-15.75v88h15.75Z" clip-rule="evenodd" /></symbol><symbol fill="none" viewBox="0 0 350 224" id="progress-05"><rect width="265.034" height="139.034" x="42.483" y="42.483" stroke="#F4574D" stroke-width="84.966" rx="69.517" /></symbol></defs></svg>