<?xml version="1.0" standalone="no"?>
<!DOCTYPE svg PUBLIC "-//W3C//DTD SVG 20010904//EN"
 "http://www.w3.org/TR/2001/REC-SVG-20010904/DTD/svg10.dtd">
<svg version="1.0" xmlns="http://www.w3.org/2000/svg"
 width="160.000000pt" height="160.000000pt" viewBox="0 0 160.000000 160.000000"
 preserveAspectRatio="xMidYMid meet">
<metadata>
Created by potrace 1.11, written by Peter Selinger 2001-2013
</metadata>
<g transform="translate(0.000000,160.000000) scale(0.100000,-0.100000)"
fill="#000000" stroke="none">
<path d="M540 1593 c-29 -12 -65 -61 -61 -85 0 -5 -7 -8 -16 -8 -10 0 -29 -11
-43 -25 -14 -14 -40 -38 -59 -54 -31 -25 -35 -34 -35 -77 -1 -27 -7 -55 -13
-62 -7 -7 -13 -20 -13 -28 0 -8 -10 -14 -24 -14 -28 0 -36 -19 -31 -70 2 -19
-1 -42 -5 -50 -5 -9 -4 -21 4 -30 21 -24 86 -208 83 -232 -3 -14 -12 -23 -28
-25 -40 -6 -49 -11 -49 -33 0 -11 -11 -43 -25 -70 -14 -27 -25 -57 -25 -66 0
-10 -6 -25 -14 -33 -13 -14 -12 -21 4 -56 11 -22 19 -47 20 -55 0 -8 8 -28 18
-45 27 -46 26 -79 -3 -95 -14 -7 -25 -20 -25 -27 0 -16 -48 -83 -155 -215 -25
-32 -42 -59 -38 -59 29 -4 220 -5 231 -1 10 3 9 10 -3 28 -14 22 -14 24 2 24
10 0 26 -14 35 -30 36 -63 121 -66 161 -5 22 34 57 47 57 22 0 -20 43 -57 76
-66 30 -8 72 7 93 33 8 10 30 13 75 11 56 -3 65 -1 69 16 8 31 56 21 104 -23
40 -35 56 -42 108 -41 38 1 42 3 88 43 53 47 68 49 96 14 29 -37 84 -62 126
-58 37 3 85 32 108 64 10 14 29 20 73 24 57 4 59 5 59 32 0 24 -5 30 -27 32
-16 2 -28 9 -28 15 0 7 -3 22 -6 33 -4 15 0 23 13 26 16 4 19 14 17 54 -2 65
-1 62 -23 69 -18 5 -19 18 -17 263 1 288 5 303 69 320 31 8 32 9 32 66 1 31
-4 60 -10 64 -19 12 -617 8 -630 -4 -6 -7 -10 -36 -9 -65 2 -70 2 -69 17 -69
9 0 12 -22 11 -78 0 -43 -3 -83 -7 -89 -8 -13 -53 -9 -73 8 -11 9 -18 9 -32
-4 -16 -15 -45 -10 -43 7 1 3 1 7 0 9 0 1 -2 13 -5 27 -13 72 -115 64 -129
-10 -2 -12 -10 -28 -16 -36 -10 -12 -15 -12 -33 -1 -14 10 -29 11 -44 6 -16
-6 -22 -5 -22 6 0 16 0 16 -50 18 -32 2 -35 5 -34 32 1 34 61 202 81 226 7 9
10 19 7 22 -4 4 -8 36 -9 71 -2 64 -2 65 19 50 11 -7 30 -14 41 -14 13 0 25
-11 33 -29 17 -38 58 -53 99 -36 17 7 34 22 37 33 4 11 15 27 26 37 25 23 26
61 1 76 -24 16 -16 47 15 55 13 3 24 10 24 14 0 19 34 40 65 40 26 0 39 6 51
25 13 21 24 25 51 23 41 -3 59 16 50 53 -7 26 -41 36 -63 18 -9 -7 -15 -5 -21
6 -5 8 -23 19 -40 24 -26 8 -34 5 -51 -12 -54 -60 -76 -63 -107 -15 -21 34
-58 49 -90 38 -12 -4 -31 0 -50 12 -29 17 -84 23 -115 11z m806 -705 c11 -11
15 -39 16 -104 0 -49 0 -95 -1 -101 -1 -10 -38 -13 -151 -13 l-149 0 2 110 c2
74 6 113 14 118 7 5 67 7 133 6 93 -1 125 -5 136 -16z m-1139 -726 c-1 -57 -3
-68 -18 -69 -14 -1 -16 3 -8 30 5 18 11 48 13 67 5 42 5 40 9 40 2 0 4 -31 4
-68z m-108 -4 c-25 -47 -41 -68 -50 -62 -5 3 -2 12 7 21 8 9 22 26 31 39 19
30 27 31 12 2z m39 -25 c-16 -39 -32 -54 -18 -19 12 33 19 46 25 46 3 0 -1
-12 -7 -27z m-30 -8 c-6 -14 -15 -25 -20 -25 -5 0 -1 11 8 25 9 14 18 25 20
25 2 0 -2 -11 -8 -25z m55 -5 c-3 -11 -10 -23 -16 -27 -5 -3 -8 -2 -5 3 3 5 8
17 11 27 9 24 16 22 10 -3z m152 0 c-3 -5 -13 -10 -21 -10 -8 0 -14 5 -14 10
0 6 9 10 21 10 11 0 17 -4 14 -10z m105 -5 c-12 -15 -30 -12 -30 6 0 5 10 9
21 9 18 0 19 -2 9 -15z m115 5 c-3 -5 -10 -10 -16 -10 -5 0 -9 5 -9 10 0 6 7
10 16 10 8 0 12 -4 9 -10z m458 -3 c-2 -4 -3 -14 -3 -23 0 -11 -6 -14 -22 -8
-30 9 -32 10 -25 29 4 9 15 14 29 11 13 -1 22 -6 21 -9z m68 -3 c14 -18 10
-23 -21 -26 -19 -2 -25 2 -26 17 -1 25 29 31 47 9z m245 -6 c-1 -25 -23 -33
-45 -19 -12 8 -12 12 -2 25 20 24 48 20 47 -6z m64 12 c13 -9 12 -12 -4 -25
-29 -22 -42 -18 -42 10 0 27 19 33 46 15z m-1027 -36 c-2 -7 -11 -10 -19 -7
-17 6 -18 15 -2 31 14 14 29 -3 21 -24z m39 -5 c-19 -7 -27 4 -18 28 6 14 8
14 21 -3 12 -17 11 -20 -3 -25z m188 10 c0 -17 -3 -18 -20 -9 -16 9 -18 13 -8
24 16 17 28 11 28 -15z m45 -11 c-19 -11 -30 -5 -21 11 4 6 14 7 22 4 15 -5
14 -7 -1 -15z"/>
</g>
</svg>
