<svg xmlns="http://www.w3.org/2000/svg" fill="none" viewBox="0 0 1400 4198"><path fill="currentColor" fill-rule="evenodd" d="M342 349a8 8 0 0 0 8-8V.5a.5.5 0 0 1 1 0V341a8 8 0 0 0 8 8h333.5a8 8 0 0 0 8-8V.5a.5.5 0 0 1 1 0V341a8 8 0 0 0 8 8h333a8 8 0 0 0 8-8V.5c0-.276.22-.5.5-.5s.5.224.5.5V341a8 8 0 0 0 8 8h340c.28 0 .5.224.5.5s-.22.5-.5.5h-340a8 8 0 0 0-8 8v333a8 8 0 0 0 8 8h340c.28 0 .5.224.5.5s-.22.5-.5.5h-340a8 8 0 0 0-8 8v333c0 4.42 3.58 8 8 8h339c.28 0 .5.22.5.5s-.22.5-.5.5h-339c-4.42 0-8 3.58-8 8v333c0 4.42 3.58 8 8 8h339c.28 0 .5.22.5.5s-.22.5-.5.5h-339c-4.42 0-8 3.58-8 8v333c0 4.42 3.58 8 8 8h339c.28 0 .5.22.5.5s-.22.5-.5.5h-339c-4.42 0-8 3.58-8 8v333c0 4.42 3.58 8 8 8h339c.28 0 .5.22.5.5s-.22.5-.5.5h-339c-4.42 0-8 3.58-8 8v333c0 4.42 3.58 8 8 8h339c.28 0 .5.22.5.5s-.22.5-.5.5h-339c-4.42 0-8 3.58-8 8v333c0 4.42 3.58 8 8 8h339c.28 0 .5.22.5.5s-.22.5-.5.5h-339c-4.42 0-8 3.58-8 8v333c0 4.42 3.58 8 8 8h339c.28 0 .5.22.5.5s-.22.5-.5.5h-339c-4.42 0-8 3.58-8 8v333c0 4.42 3.58 8 8 8h339c.28 0 .5.22.5.5s-.22.5-.5.5h-339c-4.42 0-8 3.58-8 8v333c0 4.42 3.58 8 8 8h339c.28 0 .5.22.5.5s-.22.5-.5.5h-339c-4.42 0-8 3.58-8 8v339.5c0 .28-.22.5-.5.5s-.5-.22-.5-.5V3858c0-4.42-3.58-8-8-8h-333a8 8 0 0 0-8 8v339.5c0 .28-.224.5-.5.5s-.5-.22-.5-.5V3858a8 8 0 0 0-8-8H359a8 8 0 0 0-8 8v339.5c0 .28-.224.5-.5.5s-.5-.22-.5-.5V3858a8 8 0 0 0-8-8H.5c-.276 0-.5-.22-.5-.5s.224-.5.5-.5H342a8 8 0 0 0 8-8v-333a8 8 0 0 0-8-8H.5c-.276 0-.5-.22-.5-.5s.224-.5.5-.5H342a8 8 0 0 0 8-8v-333a8 8 0 0 0-8-8H.5c-.276 0-.5-.22-.5-.5s.224-.5.5-.5H342a8 8 0 0 0 8-8v-333a8 8 0 0 0-8-8H.5c-.276 0-.5-.22-.5-.5s.224-.5.5-.5H342a8 8 0 0 0 8-8v-333a8 8 0 0 0-8-8H.5c-.276 0-.5-.22-.5-.5s.224-.5.5-.5H342a8 8 0 0 0 8-8v-333a8 8 0 0 0-8-8H.5c-.276 0-.5-.22-.5-.5s.224-.5.5-.5H342a8 8 0 0 0 8-8v-333a8 8 0 0 0-8-8H.5c-.276 0-.5-.22-.5-.5s.224-.5.5-.5H342a8 8 0 0 0 8-8v-333a8 8 0 0 0-8-8H.5c-.276 0-.5-.22-.5-.5s.224-.5.5-.5H342a8 8 0 0 0 8-8v-333a8 8 0 0 0-8-8H.5c-.276 0-.5-.22-.5-.5s.224-.5.5-.5H342a8 8 0 0 0 8-8V708a8 8 0 0 0-8-8H.5a.5.5 0 0 1 0-1H342a8 8 0 0 0 8-8V358a8 8 0 0 0-8-8H.5a.5.5 0 0 1 0-1H342Zm17 1a8 8 0 0 0-8 8v333a8 8 0 0 0 8 8h333.5a8 8 0 0 0 8-8V358a8 8 0 0 0-8-8H359Zm350.5 0a8 8 0 0 0-8 8v333a8 8 0 0 0 8 8h333a8 8 0 0 0 8-8V358a8 8 0 0 0-8-8h-333Zm341 358a8 8 0 0 0-8-8h-333a8 8 0 0 0-8 8v333a8 8 0 0 0 8 8h333c4.42 0 8-3.58 8-8V708Zm0 350c0-4.42-3.58-8-8-8h-333a8 8 0 0 0-8 8v333a8 8 0 0 0 8 8h333c4.42 0 8-3.58 8-8v-333Zm0 350c0-4.42-3.58-8-8-8h-333a8 8 0 0 0-8 8v333a8 8 0 0 0 8 8h333c4.42 0 8-3.58 8-8v-333Zm0 350c0-4.42-3.58-8-8-8h-333a8 8 0 0 0-8 8v333a8 8 0 0 0 8 8h333c4.42 0 8-3.58 8-8v-333Zm0 350c0-4.42-3.58-8-8-8h-333a8 8 0 0 0-8 8v333a8 8 0 0 0 8 8h333c4.42 0 8-3.58 8-8v-333Zm0 350c0-4.42-3.58-8-8-8h-333a8 8 0 0 0-8 8v333a8 8 0 0 0 8 8h333c4.42 0 8-3.58 8-8v-333Zm0 350c0-4.42-3.58-8-8-8h-333a8 8 0 0 0-8 8v333a8 8 0 0 0 8 8h333c4.42 0 8-3.58 8-8v-333Zm0 350c0-4.42-3.58-8-8-8h-333a8 8 0 0 0-8 8v333a8 8 0 0 0 8 8h333c4.42 0 8-3.58 8-8v-333Zm0 350c0-4.42-3.58-8-8-8h-333a8 8 0 0 0-8 8v333a8 8 0 0 0 8 8h333c4.42 0 8-3.58 8-8v-333Zm-358 341a8 8 0 0 0 8-8v-333a8 8 0 0 0-8-8H359a8 8 0 0 0-8 8v333a8 8 0 0 0 8 8h333.5ZM351 3491a8 8 0 0 0 8 8h333.5a8 8 0 0 0 8-8v-333a8 8 0 0 0-8-8H359a8 8 0 0 0-8 8v333Zm0-350a8 8 0 0 0 8 8h333.5a8 8 0 0 0 8-8v-333a8 8 0 0 0-8-8H359a8 8 0 0 0-8 8v333Zm0-350a8 8 0 0 0 8 8h333.5a8 8 0 0 0 8-8v-333a8 8 0 0 0-8-8H359a8 8 0 0 0-8 8v333Zm0-350a8 8 0 0 0 8 8h333.5a8 8 0 0 0 8-8v-333a8 8 0 0 0-8-8H359a8 8 0 0 0-8 8v333Zm0-350a8 8 0 0 0 8 8h333.5a8 8 0 0 0 8-8v-333a8 8 0 0 0-8-8H359a8 8 0 0 0-8 8v333Zm0-350a8 8 0 0 0 8 8h333.5a8 8 0 0 0 8-8v-333a8 8 0 0 0-8-8H359a8 8 0 0 0-8 8v333Zm0-350a8 8 0 0 0 8 8h333.5a8 8 0 0 0 8-8v-333a8 8 0 0 0-8-8H359a8 8 0 0 0-8 8v333Zm0-350a8 8 0 0 0 8 8h333.5a8 8 0 0 0 8-8V708a8 8 0 0 0-8-8H359a8 8 0 0 0-8 8v333Z" clip-rule="evenodd"/></svg>
