<svg xmlns="http://www.w3.org/2000/svg" xml:space="preserve" viewBox="0 0 361.5 1980"><path fill-rule="evenodd" d="M173 1760H1.5c-.3 0-.5.2-.5.5s.2.5.5.5H173c4.4 0 8 3.6 8 8v211h1v-211c0-4.4 3.6-8 8-8h171.5v-1H190c-4.4 0-8-3.6-8-8v-203c0-4.4 3.6-8 8-8h171.5v-1H190c-4.4 0-8-3.6-8-8v-203c0-4.4 3.6-8 8-8h171.5v-1H190c-4.4 0-8-3.6-8-8v-203c0-4.4 3.6-8 8-8h171.5v-1H190c-4.4 0-8-3.6-8-8V889c0-4.4 3.6-8 8-8h171.5v-1H190c-4.4 0-8-3.6-8-8V669c0-4.4 3.6-8 8-8h171.5v-1H190c-4.4 0-8-3.6-8-8V449c0-4.4 3.6-8 8-8h171.5v-1H190c-4.4 0-8-3.6-8-8V229c0-4.4 3.6-8 8-8h171.5v-1H190c-4.4 0-8-3.6-8-8V.5c0-.3-.2-.5-.5-.5s-.5.2-.5.5V212c0 4.4-3.6 8-8 8H1.5c-.3 0-.5.2-.5.5s.2.5.5.5H173c4.4 0 8 3.6 8 8v203c0 4.4-3.6 8-8 8H1.5c-.3 0-.5.2-.5.5s.2.5.5.5H173c4.4 0 8 3.6 8 8v203c0 4.4-3.6 8-8 8H1.5c-.3 0-.5.2-.5.5s.2.5.5.5H173c4.4 0 8 3.6 8 8v203c0 4.4-3.6 8-8 8H1.5c-.3 0-.5.2-.5.5s.2.5.5.5H173c4.4 0 8 3.6 8 8v203c0 4.4-3.6 8-8 8H1.5c-.3 0-.5.2-.5.5s.2.5.5.5H173c4.4 0 8 3.6 8 8v203c0 4.4-3.6 8-8 8H1.5c-.3 0-.5.2-.5.5s.2.5.5.5H173c4.4 0 8 3.6 8 8v203c0 4.4-3.6 8-8 8H1.5c-.3 0-.5.2-.5.5s.2.5.5.5H173c4.4 0 8 3.6 8 8v203c0 4.4-3.6 8-8 8z" clip-rule="evenodd"/></svg>
