<svg xmlns="http://www.w3.org/2000/svg" viewBox="0 0 1400 4210"><path fill-rule="evenodd" d="M342 350a8 8 0 0 0 8-8V.5a.5.5 0 0 1 1 0V342a8 8 0 0 0 8 8h333.5a8 8 0 0 0 8-8V.5a.5.5 0 0 1 1 0V342a8 8 0 0 0 8 8h333a8 8 0 0 0 8-8V.5c0-.276.22-.5.5-.5s.5.224.5.5V342a8 8 0 0 0 8 8h340c.28 0 .5.224.5.5s-.22.5-.5.5h-340a8 8 0 0 0-8 8v334a8 8 0 0 0 8 8h340c.28 0 .5.224.5.5s-.22.5-.5.5h-340a8 8 0 0 0-8 8v334c0 4.42 3.58 8 8 8h339c.28 0 .5.22.5.5s-.22.5-.5.5h-339c-4.42 0-8 3.58-8 8v334c0 4.42 3.58 8 8 8h339c.28 0 .5.22.5.5s-.22.5-.5.5h-339c-4.42 0-8 3.58-8 8v334c0 4.42 3.58 8 8 8h339c.28 0 .5.22.5.5s-.22.5-.5.5h-339c-4.42 0-8 3.58-8 8v334c0 4.42 3.58 8 8 8h339c.28 0 .5.22.5.5s-.22.5-.5.5h-339c-4.42 0-8 3.58-8 8v334c0 4.42 3.58 8 8 8h339c.28 0 .5.22.5.5s-.22.5-.5.5h-339c-4.42 0-8 3.58-8 8v334c0 4.42 3.58 8 8 8h339c.28 0 .5.22.5.5s-.22.5-.5.5h-339c-4.42 0-8 3.58-8 8v334c0 4.42 3.58 8 8 8h339c.28 0 .5.22.5.5s-.22.5-.5.5h-339c-4.42 0-8 3.58-8 8v334c0 4.42 3.58 8 8 8h339c.28 0 .5.22.5.5s-.22.5-.5.5h-339c-4.42 0-8 3.58-8 8v334c0 4.42 3.58 8 8 8h339c.28 0 .5.22.5.5s-.22.5-.5.5h-339c-4.42 0-8 3.58-8 8v340.5c0 .28-.22.5-.5.5s-.5-.22-.5-.5V3869c0-4.42-3.58-8-8-8h-333a8 8 0 0 0-8 8v340.5c0 .28-.224.5-.5.5s-.5-.22-.5-.5V3869a8 8 0 0 0-8-8H359a8 8 0 0 0-8 8v340.5c0 .28-.224.5-.5.5s-.5-.22-.5-.5V3869a8 8 0 0 0-8-8H.5c-.276 0-.5-.22-.5-.5s.224-.5.5-.5H342a8 8 0 0 0 8-8v-334a8 8 0 0 0-8-8H.5c-.276 0-.5-.22-.5-.5s.224-.5.5-.5H342a8 8 0 0 0 8-8v-334a8 8 0 0 0-8-8H.5c-.276 0-.5-.22-.5-.5s.224-.5.5-.5H342a8 8 0 0 0 8-8v-334a8 8 0 0 0-8-8H.5c-.276 0-.5-.22-.5-.5s.224-.5.5-.5H342a8 8 0 0 0 8-8v-334a8 8 0 0 0-8-8H.5c-.276 0-.5-.22-.5-.5s.224-.5.5-.5H342a8 8 0 0 0 8-8v-334a8 8 0 0 0-8-8H.5c-.276 0-.5-.22-.5-.5s.224-.5.5-.5H342a8 8 0 0 0 8-8v-334a8 8 0 0 0-8-8H.5c-.276 0-.5-.22-.5-.5s.224-.5.5-.5H342a8 8 0 0 0 8-8v-334a8 8 0 0 0-8-8H.5c-.276 0-.5-.22-.5-.5s.224-.5.5-.5H342a8 8 0 0 0 8-8v-334a8 8 0 0 0-8-8H.5c-.276 0-.5-.22-.5-.5s.224-.5.5-.5H342a8 8 0 0 0 8-8V710a8 8 0 0 0-8-8H.5a.5.5 0 0 1 0-1H342a8 8 0 0 0 8-8V359a8 8 0 0 0-8-8H.5a.5.5 0 0 1 0-1H342Zm17 1a8 8 0 0 0-8 8v334a8 8 0 0 0 8 8h333.5a8 8 0 0 0 8-8V359a8 8 0 0 0-8-8H359Zm350.5 0a8 8 0 0 0-8 8v334a8 8 0 0 0 8 8h333a8 8 0 0 0 8-8V359a8 8 0 0 0-8-8h-333Zm341 359a8 8 0 0 0-8-8h-333a8 8 0 0 0-8 8v334a8 8 0 0 0 8 8h333c4.42 0 8-3.58 8-8V710Zm0 351c0-4.42-3.58-8-8-8h-333a8 8 0 0 0-8 8v334a8 8 0 0 0 8 8h333c4.42 0 8-3.58 8-8v-334Zm0 351c0-4.42-3.58-8-8-8h-333a8 8 0 0 0-8 8v334a8 8 0 0 0 8 8h333c4.42 0 8-3.58 8-8v-334Zm0 351c0-4.42-3.58-8-8-8h-333a8 8 0 0 0-8 8v334a8 8 0 0 0 8 8h333c4.42 0 8-3.58 8-8v-334Zm0 351c0-4.42-3.58-8-8-8h-333a8 8 0 0 0-8 8v334a8 8 0 0 0 8 8h333c4.42 0 8-3.58 8-8v-334Zm0 351c0-4.42-3.58-8-8-8h-333a8 8 0 0 0-8 8v334a8 8 0 0 0 8 8h333c4.42 0 8-3.58 8-8v-334Zm0 351c0-4.42-3.58-8-8-8h-333a8 8 0 0 0-8 8v334a8 8 0 0 0 8 8h333c4.42 0 8-3.58 8-8v-334Zm0 351c0-4.42-3.58-8-8-8h-333a8 8 0 0 0-8 8v334a8 8 0 0 0 8 8h333c4.42 0 8-3.58 8-8v-334Zm0 351c0-4.42-3.58-8-8-8h-333a8 8 0 0 0-8 8v334a8 8 0 0 0 8 8h333c4.42 0 8-3.58 8-8v-334Zm-358 342a8 8 0 0 0 8-8v-334a8 8 0 0 0-8-8H359a8 8 0 0 0-8 8v334a8 8 0 0 0 8 8h333.5ZM351 3501a8 8 0 0 0 8 8h333.5a8 8 0 0 0 8-8v-334a8 8 0 0 0-8-8H359a8 8 0 0 0-8 8v334Zm0-351a8 8 0 0 0 8 8h333.5a8 8 0 0 0 8-8v-334a8 8 0 0 0-8-8H359a8 8 0 0 0-8 8v334Zm0-351a8 8 0 0 0 8 8h333.5a8 8 0 0 0 8-8v-334a8 8 0 0 0-8-8H359a8 8 0 0 0-8 8v334Zm0-351a8 8 0 0 0 8 8h333.5a8 8 0 0 0 8-8v-334a8 8 0 0 0-8-8H359a8 8 0 0 0-8 8v334Zm0-351a8 8 0 0 0 8 8h333.5a8 8 0 0 0 8-8v-334a8 8 0 0 0-8-8H359a8 8 0 0 0-8 8v334Zm0-351a8 8 0 0 0 8 8h333.5a8 8 0 0 0 8-8v-334a8 8 0 0 0-8-8H359a8 8 0 0 0-8 8v334Zm0-351a8 8 0 0 0 8 8h333.5a8 8 0 0 0 8-8v-334a8 8 0 0 0-8-8H359a8 8 0 0 0-8 8v334Zm0-351a8 8 0 0 0 8 8h333.5a8 8 0 0 0 8-8V710a8 8 0 0 0-8-8H359a8 8 0 0 0-8 8v334Z" clip-rule="evenodd"/></svg>
