<svg xmlns="http://www.w3.org/2000/svg" viewBox="0 0 29 13">
    <path d="M12.96,7.12h-5.86v5.88h-1.24v-4.95L1.23,12.69l-.93-.93,4.63-4.64H0v-1.24h5.86V0h1.24v4.95l1.76-1.76c1.01-1.01,1.94-1.73,2.81-2.15.86-.42,1.81-.63,2.84-.63s1.97.21,2.84.63c.86.42,1.8,1.14,2.81,2.15l1.76,1.76V0h1.23v5.88h5.86v1.24h-4.94l4.63,4.64-.92.93-4.63-4.64v4.95h-1.23v-5.88h-5.86v-1.24h4.94l-1.76-1.76c-.91-.91-1.71-1.55-2.42-1.92-.71-.37-1.48-.56-2.3-.56s-1.59.19-2.3.56c-.71.37-1.52,1.01-2.42,1.92l-1.76,1.76h4.94v1.24Z"/>
</svg>