<?xml version="1.0" encoding="UTF-8"?>
<svg width="55px" height="41px" viewBox="0 0 55 41" version="1.1" xmlns="http://www.w3.org/2000/svg" xmlns:xlink="http://www.w3.org/1999/xlink">
    <!-- Generator: Sketch 55.2 (78181) - https://sketchapp.com -->
    <title>github copy</title>
    <desc>Created with Sketch.</desc>
    <g id="Page-1" stroke="none">
        <g id="laptop" transform="translate(-632.000000, -10848.000000)">
            <g id="05.-Github" transform="translate(31.000000, 9703.000000)">
                <g id="btn" transform="translate(569.000000, 1107.000000)">
                    <path d="M59.5,38 C44.31175,38 32,47.2939025 32,58.7597346 C32,68.6386003 41.1446667,76.900052 53.3895,78.9990918 C54.10175,78.9935559 54.3721667,78.4777918 54.3721667,78.0275362 C54.3721667,77.5643635 54.3556667,76.0281431 54.3455833,74.4015026 C48.9583333,75.5788102 47.82075,71.7876213 47.82075,71.7876213 C46.9398333,69.5354208 45.67025,68.9356951 45.67025,68.9356951 C43.9120833,67.7260946 45.8031667,67.7510063 45.8031667,67.7510063 C47.7474167,67.8894045 48.7704167,69.7605486 48.7704167,69.7605486 C50.4983333,72.7388785 53.3033333,71.8789642 54.407,71.3798079 C54.583,70.120384 55.0835,69.2613923 55.6371667,68.7742305 C51.3361667,68.2815328 46.81425,66.6087596 46.81425,59.1380231 C46.81425,57.0094583 47.5686667,55.2693312 48.808,53.90657 C48.6090833,53.4129496 47.9445,51.4310869 48.99775,48.7470839 C48.99775,48.7470839 50.6239167,48.223016 54.3245,50.7455544 C55.87,50.3128292 57.5264167,50.096928 59.1736667,50.0895468 C60.8181667,50.096928 62.4755,50.3128292 64.0228333,50.7455544 C67.7206667,48.223016 69.3440833,48.7470839 69.3440833,48.7470839 C70.401,51.4310869 69.7364167,53.4129496 69.5365833,53.90657 C70.77775,55.2693312 71.5275833,57.0094583 71.5275833,59.1380231 C71.5275833,66.6272127 66.99925,68.2750743 62.6845,68.7585454 C63.3793333,69.3601164 63.999,70.5503412 63.999,72.3688939 C63.999,74.9753939 63.9751667,77.3872137 63.9751667,78.0275362 C63.9751667,78.5479136 64.3244167,79.1550205 65.3070833,78.9640309 C65.4491667,78.9603403 65.5820833,78.9658762 65.7085833,78.9815614 C77.9048333,76.8548419 87,68.6127659 87,58.7597346 C87,47.2939025 74.6873333,38 59.5,38" id="github-copy"></path>
                </g>
            </g>
        </g>
    </g>
</svg>
